<mxfile host="drawio-plugin" modified="2022-01-18T16:43:18.027Z" agent="5.0 (X11; Linux x86_64) AppleWebKit/537.36 (KHTML, like Gecko) Chrome/89.0.4389.114 Safari/537.36" etag="pP0R4pVrWyTMY9dTzcg8" version="15.5.4" type="embed" pages="6"><diagram id="sIZ1t14htmfyBORESDpK" name="Main"><mxGraphModel dx="1664" dy="1826" grid="1" gridSize="10" guides="1" tooltips="1" connect="1" arrows="1" fold="1" page="1" pageScale="1" pageWidth="850" pageHeight="1100" math="0" shadow="0"><root><mxCell id="0"/><mxCell id="1" parent="0"/><mxCell id="S5t1iTuxKc31pk9jUc9m-7" value="" style="group" parent="1" vertex="1" connectable="0"><mxGeometry x="200" y="210" width="120" height="120" as="geometry"/></mxCell><mxCell id="S5t1iTuxKc31pk9jUc9m-4" value="" style="rounded=1;whiteSpace=wrap;html=1;absoluteArcSize=1;arcSize=14;strokeWidth=2;" parent="S5t1iTuxKc31pk9jUc9m-7" vertex="1"><mxGeometry x="20" width="100" height="100" as="geometry"/></mxCell><mxCell id="S5t1iTuxKc31pk9jUc9m-5" value="" style="rounded=1;whiteSpace=wrap;html=1;absoluteArcSize=1;arcSize=14;strokeWidth=2;" parent="S5t1iTuxKc31pk9jUc9m-7" vertex="1"><mxGeometry x="10" y="10" width="100" height="100" as="geometry"/></mxCell><mxCell id="S5t1iTuxKc31pk9jUc9m-6" value="VK Parser" style="rounded=1;whiteSpace=wrap;html=1;absoluteArcSize=1;arcSize=14;strokeWidth=2;" parent="S5t1iTuxKc31pk9jUc9m-7" vertex="1"><mxGeometry y="20" width="100" height="100" as="geometry"/></mxCell><mxCell id="S5t1iTuxKc31pk9jUc9m-8" value="Groups" style="strokeWidth=2;html=1;shape=mxgraph.flowchart.database;whiteSpace=wrap;" parent="1" vertex="1"><mxGeometry x="220" y="410" width="60" height="60" as="geometry"/></mxCell><mxCell id="S5t1iTuxKc31pk9jUc9m-12" value="" style="endArrow=classic;startArrow=classic;html=1;rounded=0;exitX=0.5;exitY=0;exitDx=0;exitDy=0;exitPerimeter=0;" parent="1" source="S5t1iTuxKc31pk9jUc9m-8" edge="1"><mxGeometry width="50" height="50" relative="1" as="geometry"><mxPoint x="80" y="410" as="sourcePoint"/><mxPoint x="250" y="330" as="targetPoint"/></mxGeometry></mxCell><mxCell id="S5t1iTuxKc31pk9jUc9m-13" value="" style="group" parent="1" vertex="1" connectable="0"><mxGeometry x="1070" y="190" width="120" height="120" as="geometry"/></mxCell><mxCell id="S5t1iTuxKc31pk9jUc9m-14" value="" style="rounded=1;whiteSpace=wrap;html=1;absoluteArcSize=1;arcSize=14;strokeWidth=2;" parent="S5t1iTuxKc31pk9jUc9m-13" vertex="1"><mxGeometry x="20" width="100" height="100" as="geometry"/></mxCell><mxCell id="S5t1iTuxKc31pk9jUc9m-15" value="" style="rounded=1;whiteSpace=wrap;html=1;absoluteArcSize=1;arcSize=14;strokeWidth=2;" parent="S5t1iTuxKc31pk9jUc9m-13" vertex="1"><mxGeometry x="10" y="10" width="100" height="100" as="geometry"/></mxCell><mxCell id="S5t1iTuxKc31pk9jUc9m-16" value="IBot" style="rounded=1;whiteSpace=wrap;html=1;absoluteArcSize=1;arcSize=14;strokeWidth=2;" parent="S5t1iTuxKc31pk9jUc9m-13" vertex="1"><mxGeometry y="20" width="100" height="100" as="geometry"/></mxCell><mxCell id="S5t1iTuxKc31pk9jUc9m-17" value="" style="group" parent="1" vertex="1" connectable="0"><mxGeometry x="630" y="190" width="120" height="120" as="geometry"/></mxCell><mxCell id="S5t1iTuxKc31pk9jUc9m-18" value="" style="rounded=1;whiteSpace=wrap;html=1;absoluteArcSize=1;arcSize=14;strokeWidth=2;" parent="S5t1iTuxKc31pk9jUc9m-17" vertex="1"><mxGeometry x="20" width="100" height="100" as="geometry"/></mxCell><mxCell id="S5t1iTuxKc31pk9jUc9m-19" value="" style="rounded=1;whiteSpace=wrap;html=1;absoluteArcSize=1;arcSize=14;strokeWidth=2;" parent="S5t1iTuxKc31pk9jUc9m-17" vertex="1"><mxGeometry x="10" y="10" width="100" height="100" as="geometry"/></mxCell><mxCell id="S5t1iTuxKc31pk9jUc9m-20" value="Post Analyzer" style="rounded=1;whiteSpace=wrap;html=1;absoluteArcSize=1;arcSize=14;strokeWidth=2;" parent="S5t1iTuxKc31pk9jUc9m-17" vertex="1"><mxGeometry y="20" width="100" height="100" as="geometry"/></mxCell><mxCell id="S5t1iTuxKc31pk9jUc9m-29" value="Raw posts" style="shape=cylinder3;boundedLbl=1;backgroundOutline=1;size=15;rotation=0;horizontal=1;html=1;whiteSpace=wrap;labelBorderColor=none;direction=north;" parent="1" vertex="1"><mxGeometry x="390" y="230" width="160" height="60" as="geometry"/></mxCell><mxCell id="S5t1iTuxKc31pk9jUc9m-30" value="" style="endArrow=classic;html=1;rounded=0;entryX=0.5;entryY=0;entryDx=0;entryDy=0;entryPerimeter=0;exitX=1;exitY=0.5;exitDx=0;exitDy=0;" parent="1" source="S5t1iTuxKc31pk9jUc9m-4" target="S5t1iTuxKc31pk9jUc9m-29" edge="1"><mxGeometry width="50" height="50" relative="1" as="geometry"><mxPoint x="50" y="340" as="sourcePoint"/><mxPoint x="100" y="290" as="targetPoint"/></mxGeometry></mxCell><mxCell id="S5t1iTuxKc31pk9jUc9m-31" value="" style="endArrow=classic;html=1;rounded=0;exitX=0.5;exitY=1;exitDx=0;exitDy=0;exitPerimeter=0;entryX=0;entryY=0.5;entryDx=0;entryDy=0;" parent="1" source="S5t1iTuxKc31pk9jUc9m-29" target="S5t1iTuxKc31pk9jUc9m-20" edge="1"><mxGeometry width="50" height="50" relative="1" as="geometry"><mxPoint x="580" y="360" as="sourcePoint"/><mxPoint x="630" y="310" as="targetPoint"/></mxGeometry></mxCell><mxCell id="S5t1iTuxKc31pk9jUc9m-32" value="Posts" style="shape=cylinder3;boundedLbl=1;backgroundOutline=1;size=15;rotation=0;horizontal=1;html=1;whiteSpace=wrap;labelBorderColor=none;direction=north;" parent="1" vertex="1"><mxGeometry x="830" y="210" width="160" height="60" as="geometry"/></mxCell><mxCell id="S5t1iTuxKc31pk9jUc9m-33" value="" style="endArrow=classic;html=1;rounded=0;entryX=0;entryY=0.5;entryDx=0;entryDy=0;exitX=0.5;exitY=1;exitDx=0;exitDy=0;exitPerimeter=0;" parent="1" source="S5t1iTuxKc31pk9jUc9m-32" target="S5t1iTuxKc31pk9jUc9m-16" edge="1"><mxGeometry width="50" height="50" relative="1" as="geometry"><mxPoint x="770" y="360" as="sourcePoint"/><mxPoint x="820" y="310" as="targetPoint"/></mxGeometry></mxCell><mxCell id="S5t1iTuxKc31pk9jUc9m-34" value="" style="endArrow=classic;html=1;rounded=0;entryX=0.5;entryY=0;entryDx=0;entryDy=0;entryPerimeter=0;exitX=1;exitY=0.5;exitDx=0;exitDy=0;" parent="1" source="S5t1iTuxKc31pk9jUc9m-18" target="S5t1iTuxKc31pk9jUc9m-32" edge="1"><mxGeometry width="50" height="50" relative="1" as="geometry"><mxPoint x="770" y="360" as="sourcePoint"/><mxPoint x="820" y="310" as="targetPoint"/></mxGeometry></mxCell><mxCell id="S5t1iTuxKc31pk9jUc9m-35" value="Products" style="strokeWidth=2;html=1;shape=mxgraph.flowchart.database;whiteSpace=wrap;" parent="1" vertex="1"><mxGeometry x="650" y="380" width="60" height="60" as="geometry"/></mxCell><mxCell id="S5t1iTuxKc31pk9jUc9m-36" value="" style="endArrow=classic;html=1;rounded=0;entryX=0.5;entryY=1;entryDx=0;entryDy=0;exitX=0.5;exitY=0;exitDx=0;exitDy=0;exitPerimeter=0;" parent="1" source="S5t1iTuxKc31pk9jUc9m-35" target="S5t1iTuxKc31pk9jUc9m-20" edge="1"><mxGeometry width="50" height="50" relative="1" as="geometry"><mxPoint x="660" y="360" as="sourcePoint"/><mxPoint x="710" y="310" as="targetPoint"/></mxGeometry></mxCell><mxCell id="S5t1iTuxKc31pk9jUc9m-37" value="Posts" style="strokeWidth=2;html=1;shape=mxgraph.flowchart.database;whiteSpace=wrap;" parent="1" vertex="1"><mxGeometry x="1080" y="360" width="60" height="60" as="geometry"/></mxCell><mxCell id="S5t1iTuxKc31pk9jUc9m-38" value="" style="endArrow=classic;startArrow=classic;html=1;rounded=0;entryX=0.5;entryY=1;entryDx=0;entryDy=0;exitX=0.5;exitY=0;exitDx=0;exitDy=0;exitPerimeter=0;" parent="1" source="S5t1iTuxKc31pk9jUc9m-37" target="S5t1iTuxKc31pk9jUc9m-16" edge="1"><mxGeometry width="50" height="50" relative="1" as="geometry"><mxPoint x="1040" y="360" as="sourcePoint"/><mxPoint x="1090" y="310" as="targetPoint"/></mxGeometry></mxCell><mxCell id="S5t1iTuxKc31pk9jUc9m-42" value="" style="endArrow=classic;html=1;rounded=0;dashed=1;entryX=0.5;entryY=0;entryDx=0;entryDy=0;" parent="1" source="S5t1iTuxKc31pk9jUc9m-44" target="S5t1iTuxKc31pk9jUc9m-4" edge="1"><mxGeometry width="50" height="50" relative="1" as="geometry"><mxPoint x="90" y="280" as="sourcePoint"/><mxPoint x="90" y="160" as="targetPoint"/></mxGeometry></mxCell><mxCell id="S5t1iTuxKc31pk9jUc9m-44" value="VK API" style="rounded=1;whiteSpace=wrap;html=1;absoluteArcSize=1;arcSize=14;strokeWidth=2;labelBorderColor=none;" parent="1" vertex="1"><mxGeometry x="220" y="20" width="100" height="100" as="geometry"/></mxCell><mxCell id="S5t1iTuxKc31pk9jUc9m-45" value="" style="endArrow=classic;html=1;rounded=0;entryX=0;entryY=0.5;entryDx=0;entryDy=0;exitX=0.5;exitY=1;exitDx=0;exitDy=0;exitPerimeter=0;" parent="1" source="S5t1iTuxKc31pk9jUc9m-32" target="S5t1iTuxKc31pk9jUc9m-49" edge="1"><mxGeometry width="50" height="50" relative="1" as="geometry"><mxPoint x="1150" y="250" as="sourcePoint"/><mxPoint x="1275" y="220" as="targetPoint"/><Array as="points"><mxPoint x="1200" y="130"/></Array></mxGeometry></mxCell><mxCell id="S5t1iTuxKc31pk9jUc9m-46" value="" style="group" parent="1" vertex="1" connectable="0"><mxGeometry x="1540" y="150" width="120" height="120" as="geometry"/></mxCell><mxCell id="S5t1iTuxKc31pk9jUc9m-47" value="" style="rounded=1;whiteSpace=wrap;html=1;absoluteArcSize=1;arcSize=14;strokeWidth=2;" parent="S5t1iTuxKc31pk9jUc9m-46" vertex="1"><mxGeometry x="20" width="100" height="100" as="geometry"/></mxCell><mxCell id="S5t1iTuxKc31pk9jUc9m-48" value="" style="rounded=1;whiteSpace=wrap;html=1;absoluteArcSize=1;arcSize=14;strokeWidth=2;" parent="S5t1iTuxKc31pk9jUc9m-46" vertex="1"><mxGeometry x="10" y="10" width="100" height="100" as="geometry"/></mxCell><mxCell id="S5t1iTuxKc31pk9jUc9m-49" value="Bot ${Platform}" style="rounded=1;whiteSpace=wrap;html=1;absoluteArcSize=1;arcSize=14;strokeWidth=2;" parent="S5t1iTuxKc31pk9jUc9m-46" vertex="1"><mxGeometry y="20" width="100" height="100" as="geometry"/></mxCell><mxCell id="S5t1iTuxKc31pk9jUc9m-50" value="Users" style="strokeWidth=2;html=1;shape=mxgraph.flowchart.database;whiteSpace=wrap;" parent="1" vertex="1"><mxGeometry x="1560" y="340" width="60" height="60" as="geometry"/></mxCell><mxCell id="S5t1iTuxKc31pk9jUc9m-51" value="" style="endArrow=classic;startArrow=classic;html=1;rounded=0;entryX=0.5;entryY=1;entryDx=0;entryDy=0;exitX=0.5;exitY=0;exitDx=0;exitDy=0;exitPerimeter=0;" parent="1" source="S5t1iTuxKc31pk9jUc9m-50" target="S5t1iTuxKc31pk9jUc9m-49" edge="1"><mxGeometry width="50" height="50" relative="1" as="geometry"><mxPoint x="1520" y="340" as="sourcePoint"/><mxPoint x="1570" y="290" as="targetPoint"/></mxGeometry></mxCell><mxCell id="S5t1iTuxKc31pk9jUc9m-68" value="AD worker" style="shape=umlActor;verticalLabelPosition=bottom;verticalAlign=top;html=1;outlineConnect=0;labelBorderColor=none;" parent="1" vertex="1"><mxGeometry x="380" y="40" width="30" height="60" as="geometry"/></mxCell><mxCell id="S5t1iTuxKc31pk9jUc9m-72" value="Platform" style="rounded=1;whiteSpace=wrap;html=1;absoluteArcSize=1;arcSize=14;strokeWidth=2;labelBorderColor=none;" parent="1" vertex="1"><mxGeometry x="1560" y="-20" width="100" height="100" as="geometry"/></mxCell><mxCell id="S5t1iTuxKc31pk9jUc9m-73" value="" style="endArrow=classic;startArrow=classic;html=1;rounded=0;entryX=0.5;entryY=1;entryDx=0;entryDy=0;exitX=0.5;exitY=0;exitDx=0;exitDy=0;dashed=1;" parent="1" source="S5t1iTuxKc31pk9jUc9m-47" target="S5t1iTuxKc31pk9jUc9m-72" edge="1"><mxGeometry width="50" height="50" relative="1" as="geometry"><mxPoint x="1230" y="140" as="sourcePoint"/><mxPoint x="1280" y="90" as="targetPoint"/></mxGeometry></mxCell><mxCell id="S5t1iTuxKc31pk9jUc9m-75" value="" style="endArrow=classic;startArrow=classic;html=1;rounded=0;" parent="1" target="S5t1iTuxKc31pk9jUc9m-72" edge="1"><mxGeometry width="50" height="50" relative="1" as="geometry"><mxPoint x="1610" y="-100" as="sourcePoint"/><mxPoint x="1610" y="-20" as="targetPoint"/></mxGeometry></mxCell><mxCell id="S5t1iTuxKc31pk9jUc9m-76" value="User" style="shape=umlActor;verticalLabelPosition=bottom;verticalAlign=top;html=1;outlineConnect=0;labelBorderColor=none;" parent="1" vertex="1"><mxGeometry x="1595" y="-190" width="30" height="60" as="geometry"/></mxCell><mxCell id="S5t1iTuxKc31pk9jUc9m-79" value="" style="endArrow=none;dashed=1;html=1;entryX=0;entryY=0.5;entryDx=0;entryDy=0;entryPerimeter=0;exitX=1;exitY=0.5;exitDx=0;exitDy=0;exitPerimeter=0;curved=1;" parent="1" source="S5t1iTuxKc31pk9jUc9m-35" target="S5t1iTuxKc31pk9jUc9m-50" edge="1"><mxGeometry width="50" height="50" relative="1" as="geometry"><mxPoint x="1330" y="590" as="sourcePoint"/><mxPoint x="1380" y="540" as="targetPoint"/><Array as="points"><mxPoint x="1140" y="980"/></Array></mxGeometry></mxCell><mxCell id="S5t1iTuxKc31pk9jUc9m-80" value="" style="endArrow=classic;startArrow=classic;html=1;entryX=0;entryY=1;entryDx=0;entryDy=0;exitX=1;exitY=1;exitDx=0;exitDy=0;curved=1;" parent="1" source="S5t1iTuxKc31pk9jUc9m-16" target="S5t1iTuxKc31pk9jUc9m-49" edge="1"><mxGeometry width="50" height="50" relative="1" as="geometry"><mxPoint x="1300" y="530" as="sourcePoint"/><mxPoint x="1350" y="480" as="targetPoint"/><Array as="points"><mxPoint x="1350" y="320"/></Array></mxGeometry></mxCell><mxCell id="S5t1iTuxKc31pk9jUc9m-85" value="" style="endArrow=classic;html=1;rounded=0;entryX=1;entryY=0.5;entryDx=0;entryDy=0;" parent="1" source="S5t1iTuxKc31pk9jUc9m-68" target="S5t1iTuxKc31pk9jUc9m-44" edge="1"><mxGeometry width="50" height="50" relative="1" as="geometry"><mxPoint x="510" y="170" as="sourcePoint"/><mxPoint x="560" y="120" as="targetPoint"/></mxGeometry></mxCell><mxCell id="S5t1iTuxKc31pk9jUc9m-94" value="Raw post" style="swimlane;fontStyle=0;childLayout=stackLayout;horizontal=1;startSize=26;fillColor=none;horizontalStack=0;resizeParent=1;resizeParentMax=0;resizeLast=0;collapsible=1;marginBottom=0;labelBorderColor=none;html=1;" parent="1" vertex="1"><mxGeometry x="410" y="330" width="140" height="182" as="geometry"/></mxCell><mxCell id="S5t1iTuxKc31pk9jUc9m-95" value="+ URL: str" style="text;strokeColor=none;fillColor=none;align=left;verticalAlign=top;spacingLeft=4;spacingRight=4;overflow=hidden;rotatable=0;points=[[0,0.5],[1,0.5]];portConstraint=eastwest;labelBorderColor=none;html=1;" parent="S5t1iTuxKc31pk9jUc9m-94" vertex="1"><mxGeometry y="26" width="140" height="26" as="geometry"/></mxCell><mxCell id="S5t1iTuxKc31pk9jUc9m-96" value="+ date: int unixtime" style="text;strokeColor=none;fillColor=none;align=left;verticalAlign=top;spacingLeft=4;spacingRight=4;overflow=hidden;rotatable=0;points=[[0,0.5],[1,0.5]];portConstraint=eastwest;labelBorderColor=none;html=1;" parent="S5t1iTuxKc31pk9jUc9m-94" vertex="1"><mxGeometry y="52" width="140" height="26" as="geometry"/></mxCell><mxCell id="S5t1iTuxKc31pk9jUc9m-97" value="+ text: str" style="text;strokeColor=none;fillColor=none;align=left;verticalAlign=top;spacingLeft=4;spacingRight=4;overflow=hidden;rotatable=0;points=[[0,0.5],[1,0.5]];portConstraint=eastwest;labelBorderColor=none;html=1;" parent="S5t1iTuxKc31pk9jUc9m-94" vertex="1"><mxGeometry y="78" width="140" height="26" as="geometry"/></mxCell><mxCell id="RRgQxFZ0qxmRcZ24AocQ-5" value="+ geo: ?" style="text;strokeColor=none;fillColor=none;align=left;verticalAlign=top;spacingLeft=4;spacingRight=4;overflow=hidden;rotatable=0;points=[[0,0.5],[1,0.5]];portConstraint=eastwest;" parent="S5t1iTuxKc31pk9jUc9m-94" vertex="1"><mxGeometry y="104" width="140" height="26" as="geometry"/></mxCell><mxCell id="RRgQxFZ0qxmRcZ24AocQ-6" value="+ attachments: URL[]" style="text;strokeColor=none;fillColor=none;align=left;verticalAlign=top;spacingLeft=4;spacingRight=4;overflow=hidden;rotatable=0;points=[[0,0.5],[1,0.5]];portConstraint=eastwest;" parent="S5t1iTuxKc31pk9jUc9m-94" vertex="1"><mxGeometry y="130" width="140" height="26" as="geometry"/></mxCell><mxCell id="RRgQxFZ0qxmRcZ24AocQ-7" value="+ region: str[]" style="text;strokeColor=none;fillColor=none;align=left;verticalAlign=top;spacingLeft=4;spacingRight=4;overflow=hidden;rotatable=0;points=[[0,0.5],[1,0.5]];portConstraint=eastwest;" parent="S5t1iTuxKc31pk9jUc9m-94" vertex="1"><mxGeometry y="156" width="140" height="26" as="geometry"/></mxCell><mxCell id="S5t1iTuxKc31pk9jUc9m-98" value="VK Post" style="swimlane;fontStyle=0;childLayout=stackLayout;horizontal=1;startSize=26;fillColor=none;horizontalStack=0;resizeParent=1;resizeParentMax=0;resizeLast=0;collapsible=1;marginBottom=0;labelBorderColor=none;html=1;" parent="1" vertex="1"><mxGeometry y="138" width="180" height="52" as="geometry"/></mxCell><mxCell id="S5t1iTuxKc31pk9jUc9m-99" value="https://vk.com/dev/objects/post" style="text;strokeColor=none;fillColor=none;align=left;verticalAlign=top;spacingLeft=4;spacingRight=4;overflow=hidden;rotatable=0;points=[[0,0.5],[1,0.5]];portConstraint=eastwest;labelBorderColor=none;html=1;" parent="S5t1iTuxKc31pk9jUc9m-98" vertex="1"><mxGeometry y="26" width="180" height="26" as="geometry"/></mxCell><mxCell id="S5t1iTuxKc31pk9jUc9m-104" value="Post" style="swimlane;fontStyle=0;childLayout=stackLayout;horizontal=1;startSize=26;fillColor=none;horizontalStack=0;resizeParent=1;resizeParentMax=0;resizeLast=0;collapsible=1;marginBottom=0;labelBorderColor=none;html=1;" parent="1" vertex="1"><mxGeometry x="820" y="660" width="140" height="234" as="geometry"/></mxCell><mxCell id="S5t1iTuxKc31pk9jUc9m-105" value="+ URL: str" style="text;strokeColor=none;fillColor=none;align=left;verticalAlign=top;spacingLeft=4;spacingRight=4;overflow=hidden;rotatable=0;points=[[0,0.5],[1,0.5]];portConstraint=eastwest;labelBorderColor=none;html=1;" parent="S5t1iTuxKc31pk9jUc9m-104" vertex="1"><mxGeometry y="26" width="140" height="26" as="geometry"/></mxCell><mxCell id="RRgQxFZ0qxmRcZ24AocQ-9" value="+ date: int unixtime" style="text;strokeColor=none;fillColor=none;align=left;verticalAlign=top;spacingLeft=4;spacingRight=4;overflow=hidden;rotatable=0;points=[[0,0.5],[1,0.5]];portConstraint=eastwest;labelBorderColor=none;html=1;" parent="S5t1iTuxKc31pk9jUc9m-104" vertex="1"><mxGeometry y="52" width="140" height="26" as="geometry"/></mxCell><mxCell id="RRgQxFZ0qxmRcZ24AocQ-10" value="+ text: str" style="text;strokeColor=none;fillColor=none;align=left;verticalAlign=top;spacingLeft=4;spacingRight=4;overflow=hidden;rotatable=0;points=[[0,0.5],[1,0.5]];portConstraint=eastwest;labelBorderColor=none;html=1;" parent="S5t1iTuxKc31pk9jUc9m-104" vertex="1"><mxGeometry y="78" width="140" height="26" as="geometry"/></mxCell><mxCell id="RRgQxFZ0qxmRcZ24AocQ-11" value="+ point: Point" style="text;strokeColor=none;fillColor=none;align=left;verticalAlign=top;spacingLeft=4;spacingRight=4;overflow=hidden;rotatable=0;points=[[0,0.5],[1,0.5]];portConstraint=eastwest;" parent="S5t1iTuxKc31pk9jUc9m-104" vertex="1"><mxGeometry y="104" width="140" height="26" as="geometry"/></mxCell><mxCell id="RRgQxFZ0qxmRcZ24AocQ-13" value="+ region: str[]" style="text;strokeColor=none;fillColor=none;align=left;verticalAlign=top;spacingLeft=4;spacingRight=4;overflow=hidden;rotatable=0;points=[[0,0.5],[1,0.5]];portConstraint=eastwest;" parent="S5t1iTuxKc31pk9jUc9m-104" vertex="1"><mxGeometry y="130" width="140" height="26" as="geometry"/></mxCell><mxCell id="RRgQxFZ0qxmRcZ24AocQ-12" value="+ attachments: URL[]" style="text;strokeColor=none;fillColor=none;align=left;verticalAlign=top;spacingLeft=4;spacingRight=4;overflow=hidden;rotatable=0;points=[[0,0.5],[1,0.5]];portConstraint=eastwest;" parent="S5t1iTuxKc31pk9jUc9m-104" vertex="1"><mxGeometry y="156" width="140" height="26" as="geometry"/></mxCell><mxCell id="RRgQxFZ0qxmRcZ24AocQ-24" value="+ regions: Regions[]" style="text;strokeColor=none;fillColor=none;align=left;verticalAlign=top;spacingLeft=4;spacingRight=4;overflow=hidden;rotatable=0;points=[[0,0.5],[1,0.5]];portConstraint=eastwest;" parent="S5t1iTuxKc31pk9jUc9m-104" vertex="1"><mxGeometry y="182" width="140" height="26" as="geometry"/></mxCell><mxCell id="S5t1iTuxKc31pk9jUc9m-107" value="+ products: Product[]" style="text;strokeColor=none;fillColor=none;align=left;verticalAlign=top;spacingLeft=4;spacingRight=4;overflow=hidden;rotatable=0;points=[[0,0.5],[1,0.5]];portConstraint=eastwest;labelBorderColor=none;html=1;" parent="S5t1iTuxKc31pk9jUc9m-104" vertex="1"><mxGeometry y="208" width="140" height="26" as="geometry"/></mxCell><mxCell id="S5t1iTuxKc31pk9jUc9m-118" value="Group" style="swimlane;fontStyle=0;childLayout=stackLayout;horizontal=1;startSize=26;fillColor=none;horizontalStack=0;resizeParent=1;resizeParentMax=0;resizeLast=0;collapsible=1;marginBottom=0;labelBorderColor=none;html=1;" parent="1" vertex="1"><mxGeometry x="180" y="550" width="140" height="104" as="geometry"/></mxCell><mxCell id="S5t1iTuxKc31pk9jUc9m-119" value="+ id: int" style="text;strokeColor=none;fillColor=none;align=left;verticalAlign=top;spacingLeft=4;spacingRight=4;overflow=hidden;rotatable=0;points=[[0,0.5],[1,0.5]];portConstraint=eastwest;labelBorderColor=none;html=1;" parent="S5t1iTuxKc31pk9jUc9m-118" vertex="1"><mxGeometry y="26" width="140" height="26" as="geometry"/></mxCell><mxCell id="S5t1iTuxKc31pk9jUc9m-120" value="+ last_post: int" style="text;strokeColor=none;fillColor=none;align=left;verticalAlign=top;spacingLeft=4;spacingRight=4;overflow=hidden;rotatable=0;points=[[0,0.5],[1,0.5]];portConstraint=eastwest;labelBorderColor=none;html=1;" parent="S5t1iTuxKc31pk9jUc9m-118" vertex="1"><mxGeometry y="52" width="140" height="26" as="geometry"/></mxCell><mxCell id="S5t1iTuxKc31pk9jUc9m-121" value="+ regions: Region[]" style="text;strokeColor=none;fillColor=none;align=left;verticalAlign=top;spacingLeft=4;spacingRight=4;overflow=hidden;rotatable=0;points=[[0,0.5],[1,0.5]];portConstraint=eastwest;labelBorderColor=none;html=1;" parent="S5t1iTuxKc31pk9jUc9m-118" vertex="1"><mxGeometry y="78" width="140" height="26" as="geometry"/></mxCell><mxCell id="S5t1iTuxKc31pk9jUc9m-122" value="Product" style="swimlane;fontStyle=0;childLayout=stackLayout;horizontal=1;startSize=26;fillColor=none;horizontalStack=0;resizeParent=1;resizeParentMax=0;resizeLast=0;collapsible=1;marginBottom=0;labelBorderColor=none;html=1;" parent="1" vertex="1"><mxGeometry x="590" y="512" width="180" height="78" as="geometry"/></mxCell><mxCell id="S5t1iTuxKc31pk9jUc9m-123" value="+ id: str like category.product" style="text;strokeColor=none;fillColor=none;align=left;verticalAlign=top;spacingLeft=4;spacingRight=4;overflow=hidden;rotatable=0;points=[[0,0.5],[1,0.5]];portConstraint=eastwest;labelBorderColor=none;html=1;" parent="S5t1iTuxKc31pk9jUc9m-122" vertex="1"><mxGeometry y="26" width="180" height="26" as="geometry"/></mxCell><mxCell id="S5t1iTuxKc31pk9jUc9m-124" value="+ name: str" style="text;strokeColor=none;fillColor=none;align=left;verticalAlign=top;spacingLeft=4;spacingRight=4;overflow=hidden;rotatable=0;points=[[0,0.5],[1,0.5]];portConstraint=eastwest;labelBorderColor=none;html=1;" parent="S5t1iTuxKc31pk9jUc9m-122" vertex="1"><mxGeometry y="52" width="180" height="26" as="geometry"/></mxCell><mxCell id="S5t1iTuxKc31pk9jUc9m-126" value="User" style="swimlane;fontStyle=0;childLayout=stackLayout;horizontal=1;startSize=26;fillColor=none;horizontalStack=0;resizeParent=1;resizeParentMax=0;resizeLast=0;collapsible=1;marginBottom=0;labelBorderColor=none;html=1;" parent="1" vertex="1"><mxGeometry x="1520" y="498" width="140" height="156" as="geometry"/></mxCell><mxCell id="S5t1iTuxKc31pk9jUc9m-127" value="+ id: int" style="text;strokeColor=none;fillColor=none;align=left;verticalAlign=top;spacingLeft=4;spacingRight=4;overflow=hidden;rotatable=0;points=[[0,0.5],[1,0.5]];portConstraint=eastwest;labelBorderColor=none;html=1;" parent="S5t1iTuxKc31pk9jUc9m-126" vertex="1"><mxGeometry y="26" width="140" height="26" as="geometry"/></mxCell><mxCell id="S5t1iTuxKc31pk9jUc9m-128" value="+ products: Product[]" style="text;strokeColor=none;fillColor=none;align=left;verticalAlign=top;spacingLeft=4;spacingRight=4;overflow=hidden;rotatable=0;points=[[0,0.5],[1,0.5]];portConstraint=eastwest;labelBorderColor=none;html=1;" parent="S5t1iTuxKc31pk9jUc9m-126" vertex="1"><mxGeometry y="52" width="140" height="26" as="geometry"/></mxCell><mxCell id="S5t1iTuxKc31pk9jUc9m-129" value="+ places: Point[]" style="text;strokeColor=none;fillColor=none;align=left;verticalAlign=top;spacingLeft=4;spacingRight=4;overflow=hidden;rotatable=0;points=[[0,0.5],[1,0.5]];portConstraint=eastwest;labelBorderColor=none;html=1;" parent="S5t1iTuxKc31pk9jUc9m-126" vertex="1"><mxGeometry y="78" width="140" height="26" as="geometry"/></mxCell><mxCell id="RRgQxFZ0qxmRcZ24AocQ-25" value="+ session: Session" style="text;strokeColor=none;fillColor=none;align=left;verticalAlign=top;spacingLeft=4;spacingRight=4;overflow=hidden;rotatable=0;points=[[0,0.5],[1,0.5]];portConstraint=eastwest;labelBorderColor=none;html=1;" parent="S5t1iTuxKc31pk9jUc9m-126" vertex="1"><mxGeometry y="104" width="140" height="26" as="geometry"/></mxCell><mxCell id="RRgQxFZ0qxmRcZ24AocQ-30" value="+ isActive: bool" style="text;strokeColor=none;fillColor=none;align=left;verticalAlign=top;spacingLeft=4;spacingRight=4;overflow=hidden;rotatable=0;points=[[0,0.5],[1,0.5]];portConstraint=eastwest;" parent="S5t1iTuxKc31pk9jUc9m-126" vertex="1"><mxGeometry y="130" width="140" height="26" as="geometry"/></mxCell><mxCell id="S5t1iTuxKc31pk9jUc9m-130" value="" style="endArrow=none;dashed=1;html=1;dashPattern=1 3;strokeWidth=2;rounded=0;entryX=0.5;entryY=1;entryDx=0;entryDy=0;entryPerimeter=0;exitX=0.5;exitY=0;exitDx=0;exitDy=0;" parent="1" source="S5t1iTuxKc31pk9jUc9m-126" target="S5t1iTuxKc31pk9jUc9m-50" edge="1"><mxGeometry width="50" height="50" relative="1" as="geometry"><mxPoint x="1390" y="500" as="sourcePoint"/><mxPoint x="1440" y="450" as="targetPoint"/></mxGeometry></mxCell><mxCell id="S5t1iTuxKc31pk9jUc9m-131" value="" style="endArrow=none;dashed=1;html=1;dashPattern=1 3;strokeWidth=2;rounded=0;entryX=-0.01;entryY=0.546;entryDx=0;entryDy=0;entryPerimeter=0;exitX=0.5;exitY=0;exitDx=0;exitDy=0;jumpStyle=none;" parent="1" source="S5t1iTuxKc31pk9jUc9m-104" target="S5t1iTuxKc31pk9jUc9m-32" edge="1"><mxGeometry width="50" height="50" relative="1" as="geometry"><mxPoint x="890" y="410" as="sourcePoint"/><mxPoint x="940" y="360" as="targetPoint"/></mxGeometry></mxCell><mxCell id="S5t1iTuxKc31pk9jUc9m-132" value="" style="endArrow=none;dashed=1;html=1;dashPattern=1 3;strokeWidth=2;rounded=0;jumpStyle=none;exitX=0.5;exitY=0;exitDx=0;exitDy=0;entryX=0.5;entryY=1;entryDx=0;entryDy=0;entryPerimeter=0;" parent="1" source="S5t1iTuxKc31pk9jUc9m-104" target="S5t1iTuxKc31pk9jUc9m-37" edge="1"><mxGeometry width="50" height="50" relative="1" as="geometry"><mxPoint x="1140" y="510" as="sourcePoint"/><mxPoint x="1190" y="460" as="targetPoint"/></mxGeometry></mxCell><mxCell id="S5t1iTuxKc31pk9jUc9m-133" value="" style="endArrow=none;dashed=1;html=1;dashPattern=1 3;strokeWidth=2;rounded=0;jumpStyle=none;entryX=0.5;entryY=1;entryDx=0;entryDy=0;entryPerimeter=0;exitX=0.5;exitY=0;exitDx=0;exitDy=0;" parent="1" source="S5t1iTuxKc31pk9jUc9m-122" target="S5t1iTuxKc31pk9jUc9m-35" edge="1"><mxGeometry width="50" height="50" relative="1" as="geometry"><mxPoint x="590" y="520" as="sourcePoint"/><mxPoint x="640" y="470" as="targetPoint"/></mxGeometry></mxCell><mxCell id="S5t1iTuxKc31pk9jUc9m-134" value="" style="endArrow=none;dashed=1;html=1;dashPattern=1 3;strokeWidth=2;rounded=0;jumpStyle=none;exitX=1;exitY=0.5;exitDx=0;exitDy=0;" parent="1" source="S5t1iTuxKc31pk9jUc9m-98" edge="1"><mxGeometry width="50" height="50" relative="1" as="geometry"><mxPoint x="100" y="340" as="sourcePoint"/><mxPoint x="270" y="164" as="targetPoint"/></mxGeometry></mxCell><mxCell id="S5t1iTuxKc31pk9jUc9m-135" value="" style="endArrow=none;dashed=1;html=1;dashPattern=1 3;strokeWidth=2;rounded=0;jumpStyle=none;entryX=0;entryY=0.563;entryDx=0;entryDy=0;entryPerimeter=0;exitX=0.5;exitY=0;exitDx=0;exitDy=0;" parent="1" source="S5t1iTuxKc31pk9jUc9m-94" target="S5t1iTuxKc31pk9jUc9m-29" edge="1"><mxGeometry width="50" height="50" relative="1" as="geometry"><mxPoint x="370" y="390" as="sourcePoint"/><mxPoint x="420" y="340" as="targetPoint"/></mxGeometry></mxCell><mxCell id="S5t1iTuxKc31pk9jUc9m-136" value="" style="endArrow=none;dashed=1;html=1;dashPattern=1 3;strokeWidth=2;rounded=0;jumpStyle=none;exitX=0.5;exitY=0;exitDx=0;exitDy=0;entryX=0.5;entryY=1;entryDx=0;entryDy=0;entryPerimeter=0;" parent="1" source="S5t1iTuxKc31pk9jUc9m-118" target="S5t1iTuxKc31pk9jUc9m-8" edge="1"><mxGeometry width="50" height="50" relative="1" as="geometry"><mxPoint x="390" y="520" as="sourcePoint"/><mxPoint x="440" y="470" as="targetPoint"/></mxGeometry></mxCell><mxCell id="S5t1iTuxKc31pk9jUc9m-137" value="NoSQL" style="text;html=1;strokeColor=none;fillColor=none;align=center;verticalAlign=middle;whiteSpace=wrap;rounded=0;labelBorderColor=none;" parent="1" vertex="1"><mxGeometry x="1140" y="375" width="60" height="30" as="geometry"/></mxCell><mxCell id="S5t1iTuxKc31pk9jUc9m-146" value="SQL" style="text;html=1;strokeColor=none;fillColor=none;align=center;verticalAlign=middle;whiteSpace=wrap;rounded=0;labelBorderColor=none;" parent="1" vertex="1"><mxGeometry x="280" y="420" width="60" height="30" as="geometry"/></mxCell><mxCell id="S5t1iTuxKc31pk9jUc9m-152" value="&lt;h1&gt;Message queue&lt;br&gt;&lt;/h1&gt;&lt;p&gt;- Rabbit MQ&lt;/p&gt;" style="text;html=1;strokeColor=none;fillColor=none;spacing=5;spacingTop=-20;whiteSpace=wrap;overflow=hidden;rounded=0;labelBorderColor=none;" parent="1" vertex="1"><mxGeometry x="560" y="-224" width="190" height="70" as="geometry"/></mxCell><mxCell id="S5t1iTuxKc31pk9jUc9m-154" value="&lt;h1&gt;SQL&lt;/h1&gt;&lt;p&gt;- PostgreSQL&lt;/p&gt;" style="text;html=1;strokeColor=none;fillColor=none;spacing=5;spacingTop=-20;whiteSpace=wrap;overflow=hidden;rounded=0;labelBorderColor=none;" parent="1" vertex="1"><mxGeometry x="560" y="-70" width="190" height="70" as="geometry"/></mxCell><mxCell id="S5t1iTuxKc31pk9jUc9m-155" value="&lt;h1&gt;NoSQL&lt;/h1&gt;&lt;div&gt;- MongoDB&lt;/div&gt;" style="text;html=1;strokeColor=none;fillColor=none;spacing=5;spacingTop=-20;whiteSpace=wrap;overflow=hidden;rounded=0;labelBorderColor=none;" parent="1" vertex="1"><mxGeometry x="560" y="-154" width="190" height="84" as="geometry"/></mxCell><mxCell id="S5t1iTuxKc31pk9jUc9m-157" value="Config Server" style="rounded=1;whiteSpace=wrap;html=1;absoluteArcSize=1;arcSize=14;strokeWidth=2;labelBorderColor=none;" parent="1" vertex="1"><mxGeometry x="930" y="30" width="100" height="100" as="geometry"/></mxCell><mxCell id="S5t1iTuxKc31pk9jUc9m-159" value="Schedule rules&lt;br&gt;Token" style="endArrow=classic;html=1;curved=1;jumpStyle=none;entryX=1;entryY=0;entryDx=0;entryDy=0;exitX=0;exitY=0.5;exitDx=0;exitDy=0;" parent="1" source="S5t1iTuxKc31pk9jUc9m-157" target="S5t1iTuxKc31pk9jUc9m-4" edge="1"><mxGeometry width="50" height="50" relative="1" as="geometry"><mxPoint x="740" y="280" as="sourcePoint"/><mxPoint x="790" y="230" as="targetPoint"/></mxGeometry></mxCell><mxCell id="S5t1iTuxKc31pk9jUc9m-160" value="Constraints&lt;br&gt;Token" style="endArrow=classic;html=1;curved=1;jumpStyle=none;entryX=0;entryY=0;entryDx=0;entryDy=0;exitX=1;exitY=0.5;exitDx=0;exitDy=0;" parent="1" source="S5t1iTuxKc31pk9jUc9m-157" target="S5t1iTuxKc31pk9jUc9m-49" edge="1"><mxGeometry width="50" height="50" relative="1" as="geometry"><mxPoint x="1140" y="280" as="sourcePoint"/><mxPoint x="1190" y="230" as="targetPoint"/></mxGeometry></mxCell><mxCell id="rd5yC3XwgyLdAe3iGbPB-9" value="&lt;h1&gt;VK API&lt;/h1&gt;&lt;div&gt;Методы:&lt;/div&gt;&lt;div&gt;https://vk.com/dev/api_requests&lt;br&gt;&lt;/div&gt;&lt;div&gt;&lt;br&gt;&lt;/div&gt;&lt;div&gt;Ограничения:&lt;/div&gt;&lt;div&gt;5 запросов в секунду&lt;/div&gt;&lt;div&gt;&lt;br&gt;&lt;/div&gt;&lt;div&gt;Решение?&lt;/div&gt;&lt;div&gt;https://vk.com/dev/execute&lt;br&gt;&lt;/div&gt;" style="text;html=1;strokeColor=none;fillColor=none;spacing=5;spacingTop=-20;whiteSpace=wrap;overflow=hidden;rounded=0;" parent="1" vertex="1"><mxGeometry x="350" y="-174" width="190" height="180" as="geometry"/></mxCell><mxCell id="rd5yC3XwgyLdAe3iGbPB-10" value="&lt;h1&gt;VK Parser&lt;/h1&gt;&lt;p&gt;- Python&lt;/p&gt;" style="text;html=1;strokeColor=none;fillColor=none;spacing=5;spacingTop=-20;whiteSpace=wrap;overflow=hidden;rounded=0;" parent="1" vertex="1"><mxGeometry x="790" y="-280" width="190" height="70" as="geometry"/></mxCell><mxCell id="rd5yC3XwgyLdAe3iGbPB-11" value="&lt;h1&gt;Bot ${Platform}&lt;/h1&gt;&lt;p&gt;- Python / Java&lt;/p&gt;" style="text;html=1;strokeColor=none;fillColor=none;spacing=5;spacingTop=-20;whiteSpace=wrap;overflow=hidden;rounded=0;" parent="1" vertex="1"><mxGeometry x="790" y="-70" width="190" height="70" as="geometry"/></mxCell><mxCell id="rd5yC3XwgyLdAe3iGbPB-12" value="&lt;h1&gt;IBot&lt;/h1&gt;&lt;p&gt;- Python / Java&lt;/p&gt;" style="text;html=1;strokeColor=none;fillColor=none;spacing=5;spacingTop=-20;whiteSpace=wrap;overflow=hidden;rounded=0;" parent="1" vertex="1"><mxGeometry x="790" y="-140" width="190" height="70" as="geometry"/></mxCell><mxCell id="rd5yC3XwgyLdAe3iGbPB-13" value="&lt;h1&gt;Analyzer&lt;/h1&gt;&lt;p&gt;- Python&lt;/p&gt;" style="text;html=1;strokeColor=none;fillColor=none;spacing=5;spacingTop=-20;whiteSpace=wrap;overflow=hidden;rounded=0;" parent="1" vertex="1"><mxGeometry x="790" y="-210" width="190" height="70" as="geometry"/></mxCell><mxCell id="rd5yC3XwgyLdAe3iGbPB-14" value="&lt;h1&gt;Config Server&lt;/h1&gt;&lt;p&gt;- Java&lt;/p&gt;" style="text;html=1;strokeColor=none;fillColor=none;spacing=5;spacingTop=-20;whiteSpace=wrap;overflow=hidden;rounded=0;" parent="1" vertex="1"><mxGeometry x="1130" y="-330" width="190" height="70" as="geometry"/></mxCell><mxCell id="KADDkZ1HzYO6EaYC5t9L-1" value="" style="endArrow=none;dashed=1;html=1;dashPattern=1 3;strokeWidth=2;rounded=0;exitX=1;exitY=0.5;exitDx=0;exitDy=0;exitPerimeter=0;entryX=0;entryY=0.5;entryDx=0;entryDy=0;entryPerimeter=0;" parent="1" source="S5t1iTuxKc31pk9jUc9m-35" target="S5t1iTuxKc31pk9jUc9m-37" edge="1"><mxGeometry width="50" height="50" relative="1" as="geometry"><mxPoint x="890" y="530" as="sourcePoint"/><mxPoint x="940" y="480" as="targetPoint"/></mxGeometry></mxCell><mxCell id="OxthOHCGTIJKLNSPYmHw-16" value="" style="group" parent="1" vertex="1" connectable="0"><mxGeometry x="1310" y="330" width="120" height="120" as="geometry"/></mxCell><mxCell id="OxthOHCGTIJKLNSPYmHw-17" value="" style="rounded=1;whiteSpace=wrap;html=1;absoluteArcSize=1;arcSize=14;strokeWidth=2;" parent="OxthOHCGTIJKLNSPYmHw-16" vertex="1"><mxGeometry x="20" width="100" height="100" as="geometry"/></mxCell><mxCell id="OxthOHCGTIJKLNSPYmHw-18" value="" style="rounded=1;whiteSpace=wrap;html=1;absoluteArcSize=1;arcSize=14;strokeWidth=2;" parent="OxthOHCGTIJKLNSPYmHw-16" vertex="1"><mxGeometry x="10" y="10" width="100" height="100" as="geometry"/></mxCell><mxCell id="OxthOHCGTIJKLNSPYmHw-19" value="Command Analyzer" style="rounded=1;whiteSpace=wrap;html=1;absoluteArcSize=1;arcSize=14;strokeWidth=2;" parent="OxthOHCGTIJKLNSPYmHw-16" vertex="1"><mxGeometry y="20" width="100" height="100" as="geometry"/></mxCell><mxCell id="OxthOHCGTIJKLNSPYmHw-23" value="Map API" style="rounded=1;whiteSpace=wrap;html=1;absoluteArcSize=1;arcSize=14;strokeWidth=2;labelBorderColor=none;" parent="1" vertex="1"><mxGeometry x="1740" y="150" width="100" height="100" as="geometry"/></mxCell><mxCell id="OxthOHCGTIJKLNSPYmHw-24" value="" style="endArrow=none;startArrow=classic;html=1;rounded=0;entryX=0;entryY=0.5;entryDx=0;entryDy=0;exitX=1;exitY=0.5;exitDx=0;exitDy=0;dashed=1;endFill=0;" parent="1" source="S5t1iTuxKc31pk9jUc9m-47" target="OxthOHCGTIJKLNSPYmHw-23" edge="1"><mxGeometry width="50" height="50" relative="1" as="geometry"><mxPoint x="1729.58" y="265" as="sourcePoint"/><mxPoint x="1729.58" y="195" as="targetPoint"/></mxGeometry></mxCell><mxCell id="RRgQxFZ0qxmRcZ24AocQ-1" value="VK Post" style="swimlane;fontStyle=0;childLayout=stackLayout;horizontal=1;startSize=26;fillColor=none;horizontalStack=0;resizeParent=1;resizeParentMax=0;resizeLast=0;collapsible=1;marginBottom=0;" parent="1" vertex="1"><mxGeometry x="-10" y="300" width="140" height="104" as="geometry"/></mxCell><mxCell id="RRgQxFZ0qxmRcZ24AocQ-2" value="+ field: type" style="text;strokeColor=none;fillColor=none;align=left;verticalAlign=top;spacingLeft=4;spacingRight=4;overflow=hidden;rotatable=0;points=[[0,0.5],[1,0.5]];portConstraint=eastwest;" parent="RRgQxFZ0qxmRcZ24AocQ-1" vertex="1"><mxGeometry y="26" width="140" height="26" as="geometry"/></mxCell><mxCell id="RRgQxFZ0qxmRcZ24AocQ-3" value="+ field: type" style="text;strokeColor=none;fillColor=none;align=left;verticalAlign=top;spacingLeft=4;spacingRight=4;overflow=hidden;rotatable=0;points=[[0,0.5],[1,0.5]];portConstraint=eastwest;" parent="RRgQxFZ0qxmRcZ24AocQ-1" vertex="1"><mxGeometry y="52" width="140" height="26" as="geometry"/></mxCell><mxCell id="RRgQxFZ0qxmRcZ24AocQ-4" value="+ field: type" style="text;strokeColor=none;fillColor=none;align=left;verticalAlign=top;spacingLeft=4;spacingRight=4;overflow=hidden;rotatable=0;points=[[0,0.5],[1,0.5]];portConstraint=eastwest;" parent="RRgQxFZ0qxmRcZ24AocQ-1" vertex="1"><mxGeometry y="78" width="140" height="26" as="geometry"/></mxCell><mxCell id="RRgQxFZ0qxmRcZ24AocQ-14" value="Regions" style="strokeWidth=2;html=1;shape=mxgraph.flowchart.database;whiteSpace=wrap;" parent="1" vertex="1"><mxGeometry x="425" y="630" width="60" height="60" as="geometry"/></mxCell><mxCell id="RRgQxFZ0qxmRcZ24AocQ-15" value="" style="endArrow=none;dashed=1;html=1;dashPattern=1 3;strokeWidth=2;rounded=0;jumpStyle=none;exitX=1;exitY=0.85;exitDx=0;exitDy=0;entryX=0.5;entryY=0;entryDx=0;entryDy=0;entryPerimeter=0;exitPerimeter=0;" parent="1" source="S5t1iTuxKc31pk9jUc9m-8" target="RRgQxFZ0qxmRcZ24AocQ-14" edge="1"><mxGeometry width="50" height="50" relative="1" as="geometry"><mxPoint x="259.99999999999955" y="560" as="sourcePoint"/><mxPoint x="259.99999999999955" y="480" as="targetPoint"/></mxGeometry></mxCell><mxCell id="RRgQxFZ0qxmRcZ24AocQ-16" value="" style="endArrow=none;dashed=1;html=1;dashPattern=1 3;strokeWidth=2;rounded=0;jumpStyle=none;exitX=0;exitY=0.5;exitDx=0;exitDy=0;entryX=0.5;entryY=0;entryDx=0;entryDy=0;entryPerimeter=0;exitPerimeter=0;" parent="1" source="S5t1iTuxKc31pk9jUc9m-37" target="RRgQxFZ0qxmRcZ24AocQ-14" edge="1"><mxGeometry width="50" height="50" relative="1" as="geometry"><mxPoint x="289.99999999999955" y="471" as="sourcePoint"/><mxPoint x="464.99999999999955" y="630" as="targetPoint"/></mxGeometry></mxCell><mxCell id="RRgQxFZ0qxmRcZ24AocQ-17" value="Region" style="swimlane;fontStyle=0;childLayout=stackLayout;horizontal=1;startSize=26;fillColor=none;horizontalStack=0;resizeParent=1;resizeParentMax=0;resizeLast=0;collapsible=1;marginBottom=0;labelBorderColor=none;html=1;" parent="1" vertex="1"><mxGeometry x="385" y="770" width="140" height="104" as="geometry"/></mxCell><mxCell id="RRgQxFZ0qxmRcZ24AocQ-18" value="+ id: str like region.city" style="text;strokeColor=none;fillColor=none;align=left;verticalAlign=top;spacingLeft=4;spacingRight=4;overflow=hidden;rotatable=0;points=[[0,0.5],[1,0.5]];portConstraint=eastwest;labelBorderColor=none;html=1;" parent="RRgQxFZ0qxmRcZ24AocQ-17" vertex="1"><mxGeometry y="26" width="140" height="26" as="geometry"/></mxCell><mxCell id="RRgQxFZ0qxmRcZ24AocQ-19" value="+ name: str" style="text;strokeColor=none;fillColor=none;align=left;verticalAlign=top;spacingLeft=4;spacingRight=4;overflow=hidden;rotatable=0;points=[[0,0.5],[1,0.5]];portConstraint=eastwest;labelBorderColor=none;html=1;" parent="RRgQxFZ0qxmRcZ24AocQ-17" vertex="1"><mxGeometry y="52" width="140" height="26" as="geometry"/></mxCell><mxCell id="RRgQxFZ0qxmRcZ24AocQ-20" value="+ point: Point" style="text;strokeColor=none;fillColor=none;align=left;verticalAlign=top;spacingLeft=4;spacingRight=4;overflow=hidden;rotatable=0;points=[[0,0.5],[1,0.5]];portConstraint=eastwest;labelBorderColor=none;html=1;" parent="RRgQxFZ0qxmRcZ24AocQ-17" vertex="1"><mxGeometry y="78" width="140" height="26" as="geometry"/></mxCell><mxCell id="RRgQxFZ0qxmRcZ24AocQ-21" value="" style="endArrow=none;dashed=1;html=1;dashPattern=1 3;strokeWidth=2;rounded=0;jumpStyle=none;exitX=0.5;exitY=1;exitDx=0;exitDy=0;entryX=0.5;entryY=0;entryDx=0;entryDy=0;exitPerimeter=0;" parent="1" source="RRgQxFZ0qxmRcZ24AocQ-14" target="RRgQxFZ0qxmRcZ24AocQ-17" edge="1"><mxGeometry width="50" height="50" relative="1" as="geometry"><mxPoint x="289.99999999999955" y="471" as="sourcePoint"/><mxPoint x="464.99999999999955" y="630" as="targetPoint"/></mxGeometry></mxCell><mxCell id="RRgQxFZ0qxmRcZ24AocQ-23" value="" style="endArrow=none;dashed=1;html=1;dashPattern=1 3;strokeWidth=2;rounded=0;jumpStyle=none;exitX=0;exitY=0.5;exitDx=0;exitDy=0;entryX=1.014;entryY=0.422;entryDx=0;entryDy=0;entryPerimeter=0;exitPerimeter=0;" parent="1" source="S5t1iTuxKc31pk9jUc9m-50" target="RRgQxFZ0qxmRcZ24AocQ-14" edge="1"><mxGeometry width="50" height="50" relative="1" as="geometry"><mxPoint x="1090" y="400" as="sourcePoint"/><mxPoint x="465" y="630" as="targetPoint"/></mxGeometry></mxCell><mxCell id="RRgQxFZ0qxmRcZ24AocQ-26" value="Point" style="swimlane;fontStyle=0;childLayout=stackLayout;horizontal=1;startSize=26;fillColor=none;horizontalStack=0;resizeParent=1;resizeParentMax=0;resizeLast=0;collapsible=1;marginBottom=0;" parent="1" vertex="1"><mxGeometry x="1100" y="852" width="140" height="104" as="geometry"/></mxCell><mxCell id="RRgQxFZ0qxmRcZ24AocQ-27" value="+ lat: float" style="text;strokeColor=none;fillColor=none;align=left;verticalAlign=top;spacingLeft=4;spacingRight=4;overflow=hidden;rotatable=0;points=[[0,0.5],[1,0.5]];portConstraint=eastwest;" parent="RRgQxFZ0qxmRcZ24AocQ-26" vertex="1"><mxGeometry y="26" width="140" height="26" as="geometry"/></mxCell><mxCell id="RRgQxFZ0qxmRcZ24AocQ-28" value="+ lon: float" style="text;strokeColor=none;fillColor=none;align=left;verticalAlign=top;spacingLeft=4;spacingRight=4;overflow=hidden;rotatable=0;points=[[0,0.5],[1,0.5]];portConstraint=eastwest;" parent="RRgQxFZ0qxmRcZ24AocQ-26" vertex="1"><mxGeometry y="52" width="140" height="26" as="geometry"/></mxCell><mxCell id="RRgQxFZ0qxmRcZ24AocQ-29" value="+ hash: str" style="text;strokeColor=none;fillColor=none;align=left;verticalAlign=top;spacingLeft=4;spacingRight=4;overflow=hidden;rotatable=0;points=[[0,0.5],[1,0.5]];portConstraint=eastwest;" parent="RRgQxFZ0qxmRcZ24AocQ-26" vertex="1"><mxGeometry y="78" width="140" height="26" as="geometry"/></mxCell></root></mxGraphModel></diagram><diagram id="kVFz6zWQrQmZCS9H0QsC" name="DB schema"><mxGraphModel dx="814" dy="726" grid="1" gridSize="10" guides="1" tooltips="1" connect="1" arrows="1" fold="1" page="1" pageScale="1" pageWidth="850" pageHeight="1100" math="0" shadow="0"><root><mxCell id="1-zc6NKqaTkRuJo8INhq-0"/><mxCell id="1-zc6NKqaTkRuJo8INhq-1" parent="1-zc6NKqaTkRuJo8INhq-0"/><mxCell id="J982HRqRmG_ACasxhhEj-68" value="PUBLIC" style="rounded=1;whiteSpace=wrap;html=1;fillColor=none;verticalAlign=top;fontStyle=1;dashed=1;" parent="1-zc6NKqaTkRuJo8INhq-1" vertex="1"><mxGeometry x="950" y="210" width="260" height="1220" as="geometry"/></mxCell><mxCell id="J982HRqRmG_ACasxhhEj-28" value="PARSER" style="rounded=1;whiteSpace=wrap;html=1;fillColor=none;verticalAlign=top;fontStyle=1;dashed=1;" parent="1-zc6NKqaTkRuJo8INhq-1" vertex="1"><mxGeometry x="70" y="210" width="760" height="170" as="geometry"/></mxCell><mxCell id="J982HRqRmG_ACasxhhEj-43" value="IBOT" style="rounded=1;whiteSpace=wrap;html=1;fillColor=none;verticalAlign=top;fontStyle=1;dashed=1;" parent="1-zc6NKqaTkRuJo8INhq-1" vertex="1"><mxGeometry x="70" y="440" width="760" height="310" as="geometry"/></mxCell><mxCell id="J982HRqRmG_ACasxhhEj-52" value="TG-BOT" style="rounded=1;whiteSpace=wrap;html=1;fillColor=none;verticalAlign=top;fontStyle=1;dashed=1;" parent="1-zc6NKqaTkRuJo8INhq-1" vertex="1"><mxGeometry x="70" y="810" width="760" height="280" as="geometry"/></mxCell><mxCell id="gtKfPHj4ghWmXjD3cdZ4-0" value="VK_GROUP" style="shape=table;startSize=30;container=1;collapsible=1;childLayout=tableLayout;fixedRows=1;rowLines=0;fontStyle=1;align=center;resizeLast=1;" parent="1-zc6NKqaTkRuJo8INhq-1" vertex="1"><mxGeometry x="110" y="240" width="180" height="90" as="geometry"/></mxCell><mxCell id="gtKfPHj4ghWmXjD3cdZ4-1" value="" style="shape=tableRow;horizontal=0;startSize=0;swimlaneHead=0;swimlaneBody=0;fillColor=none;collapsible=0;dropTarget=0;points=[[0,0.5],[1,0.5]];portConstraint=eastwest;top=0;left=0;right=0;bottom=1;" parent="gtKfPHj4ghWmXjD3cdZ4-0" vertex="1"><mxGeometry y="30" width="180" height="30" as="geometry"/></mxCell><mxCell id="gtKfPHj4ghWmXjD3cdZ4-2" value="PK" style="shape=partialRectangle;connectable=0;fillColor=none;top=0;left=0;bottom=0;right=0;fontStyle=1;overflow=hidden;" parent="gtKfPHj4ghWmXjD3cdZ4-1" vertex="1"><mxGeometry width="30" height="30" as="geometry"><mxRectangle width="30" height="30" as="alternateBounds"/></mxGeometry></mxCell><mxCell id="gtKfPHj4ghWmXjD3cdZ4-3" value="group_id" style="shape=partialRectangle;connectable=0;fillColor=none;top=0;left=0;bottom=0;right=0;align=left;spacingLeft=6;fontStyle=5;overflow=hidden;" parent="gtKfPHj4ghWmXjD3cdZ4-1" vertex="1"><mxGeometry x="30" width="150" height="30" as="geometry"><mxRectangle width="150" height="30" as="alternateBounds"/></mxGeometry></mxCell><mxCell id="gtKfPHj4ghWmXjD3cdZ4-4" value="" style="shape=tableRow;horizontal=0;startSize=0;swimlaneHead=0;swimlaneBody=0;fillColor=none;collapsible=0;dropTarget=0;points=[[0,0.5],[1,0.5]];portConstraint=eastwest;top=0;left=0;right=0;bottom=0;" parent="gtKfPHj4ghWmXjD3cdZ4-0" vertex="1"><mxGeometry y="60" width="180" height="30" as="geometry"/></mxCell><mxCell id="gtKfPHj4ghWmXjD3cdZ4-5" value="" style="shape=partialRectangle;connectable=0;fillColor=none;top=0;left=0;bottom=0;right=0;editable=1;overflow=hidden;" parent="gtKfPHj4ghWmXjD3cdZ4-4" vertex="1"><mxGeometry width="30" height="30" as="geometry"><mxRectangle width="30" height="30" as="alternateBounds"/></mxGeometry></mxCell><mxCell id="gtKfPHj4ghWmXjD3cdZ4-6" value="last_post_id" style="shape=partialRectangle;connectable=0;fillColor=none;top=0;left=0;bottom=0;right=0;align=left;spacingLeft=6;overflow=hidden;" parent="gtKfPHj4ghWmXjD3cdZ4-4" vertex="1"><mxGeometry x="30" width="150" height="30" as="geometry"><mxRectangle width="150" height="30" as="alternateBounds"/></mxGeometry></mxCell><mxCell id="0uw-YjeHDZbbh3-TQ7YD-0" value="REGION" style="shape=table;startSize=30;container=1;collapsible=1;childLayout=tableLayout;fixedRows=1;rowLines=0;fontStyle=1;align=center;resizeLast=1;" parent="1-zc6NKqaTkRuJo8INhq-1" vertex="1"><mxGeometry x="990" y="390" width="180" height="150" as="geometry"/></mxCell><mxCell id="0uw-YjeHDZbbh3-TQ7YD-1" value="" style="shape=tableRow;horizontal=0;startSize=0;swimlaneHead=0;swimlaneBody=0;fillColor=none;collapsible=0;dropTarget=0;points=[[0,0.5],[1,0.5]];portConstraint=eastwest;top=0;left=0;right=0;bottom=1;" parent="0uw-YjeHDZbbh3-TQ7YD-0" vertex="1"><mxGeometry y="30" width="180" height="30" as="geometry"/></mxCell><mxCell id="0uw-YjeHDZbbh3-TQ7YD-2" value="PK" style="shape=partialRectangle;connectable=0;fillColor=none;top=0;left=0;bottom=0;right=0;fontStyle=1;overflow=hidden;" parent="0uw-YjeHDZbbh3-TQ7YD-1" vertex="1"><mxGeometry width="30" height="30" as="geometry"><mxRectangle width="30" height="30" as="alternateBounds"/></mxGeometry></mxCell><mxCell id="0uw-YjeHDZbbh3-TQ7YD-3" value="id" style="shape=partialRectangle;connectable=0;fillColor=none;top=0;left=0;bottom=0;right=0;align=left;spacingLeft=6;fontStyle=5;overflow=hidden;" parent="0uw-YjeHDZbbh3-TQ7YD-1" vertex="1"><mxGeometry x="30" width="150" height="30" as="geometry"><mxRectangle width="150" height="30" as="alternateBounds"/></mxGeometry></mxCell><mxCell id="2y_twOkwKT3gxRgmbpGN-0" value="" style="shape=tableRow;horizontal=0;startSize=0;swimlaneHead=0;swimlaneBody=0;fillColor=none;collapsible=0;dropTarget=0;points=[[0,0.5],[1,0.5]];portConstraint=eastwest;top=0;left=0;right=0;bottom=0;" parent="0uw-YjeHDZbbh3-TQ7YD-0" vertex="1"><mxGeometry y="60" width="180" height="30" as="geometry"/></mxCell><mxCell id="2y_twOkwKT3gxRgmbpGN-1" value="" style="shape=partialRectangle;connectable=0;fillColor=none;top=0;left=0;bottom=0;right=0;editable=1;overflow=hidden;" parent="2y_twOkwKT3gxRgmbpGN-0" vertex="1"><mxGeometry width="30" height="30" as="geometry"><mxRectangle width="30" height="30" as="alternateBounds"/></mxGeometry></mxCell><mxCell id="2y_twOkwKT3gxRgmbpGN-2" value="name" style="shape=partialRectangle;connectable=0;fillColor=none;top=0;left=0;bottom=0;right=0;align=left;spacingLeft=6;overflow=hidden;" parent="2y_twOkwKT3gxRgmbpGN-0" vertex="1"><mxGeometry x="30" width="150" height="30" as="geometry"><mxRectangle width="150" height="30" as="alternateBounds"/></mxGeometry></mxCell><mxCell id="0uw-YjeHDZbbh3-TQ7YD-4" value="" style="shape=tableRow;horizontal=0;startSize=0;swimlaneHead=0;swimlaneBody=0;fillColor=none;collapsible=0;dropTarget=0;points=[[0,0.5],[1,0.5]];portConstraint=eastwest;top=0;left=0;right=0;bottom=0;" parent="0uw-YjeHDZbbh3-TQ7YD-0" vertex="1"><mxGeometry y="90" width="180" height="30" as="geometry"/></mxCell><mxCell id="0uw-YjeHDZbbh3-TQ7YD-5" value="" style="shape=partialRectangle;connectable=0;fillColor=none;top=0;left=0;bottom=0;right=0;editable=1;overflow=hidden;" parent="0uw-YjeHDZbbh3-TQ7YD-4" vertex="1"><mxGeometry width="30" height="30" as="geometry"><mxRectangle width="30" height="30" as="alternateBounds"/></mxGeometry></mxCell><mxCell id="0uw-YjeHDZbbh3-TQ7YD-6" value="lat" style="shape=partialRectangle;connectable=0;fillColor=none;top=0;left=0;bottom=0;right=0;align=left;spacingLeft=6;overflow=hidden;" parent="0uw-YjeHDZbbh3-TQ7YD-4" vertex="1"><mxGeometry x="30" width="150" height="30" as="geometry"><mxRectangle width="150" height="30" as="alternateBounds"/></mxGeometry></mxCell><mxCell id="0uw-YjeHDZbbh3-TQ7YD-7" value="" style="shape=tableRow;horizontal=0;startSize=0;swimlaneHead=0;swimlaneBody=0;fillColor=none;collapsible=0;dropTarget=0;points=[[0,0.5],[1,0.5]];portConstraint=eastwest;top=0;left=0;right=0;bottom=0;" parent="0uw-YjeHDZbbh3-TQ7YD-0" vertex="1"><mxGeometry y="120" width="180" height="30" as="geometry"/></mxCell><mxCell id="0uw-YjeHDZbbh3-TQ7YD-8" value="" style="shape=partialRectangle;connectable=0;fillColor=none;top=0;left=0;bottom=0;right=0;editable=1;overflow=hidden;" parent="0uw-YjeHDZbbh3-TQ7YD-7" vertex="1"><mxGeometry width="30" height="30" as="geometry"><mxRectangle width="30" height="30" as="alternateBounds"/></mxGeometry></mxCell><mxCell id="0uw-YjeHDZbbh3-TQ7YD-9" value="lon" style="shape=partialRectangle;connectable=0;fillColor=none;top=0;left=0;bottom=0;right=0;align=left;spacingLeft=6;overflow=hidden;" parent="0uw-YjeHDZbbh3-TQ7YD-7" vertex="1"><mxGeometry x="30" width="150" height="30" as="geometry"><mxRectangle width="150" height="30" as="alternateBounds"/></mxGeometry></mxCell><mxCell id="J982HRqRmG_ACasxhhEj-13" value="GROUP_REGIONS" style="shape=table;startSize=30;container=1;collapsible=1;childLayout=tableLayout;fixedRows=1;rowLines=0;fontStyle=1;align=center;resizeLast=1;" parent="1-zc6NKqaTkRuJo8INhq-1" vertex="1"><mxGeometry x="360" y="240" width="180" height="90" as="geometry"/></mxCell><mxCell id="J982HRqRmG_ACasxhhEj-14" value="" style="shape=tableRow;horizontal=0;startSize=0;swimlaneHead=0;swimlaneBody=0;fillColor=none;collapsible=0;dropTarget=0;points=[[0,0.5],[1,0.5]];portConstraint=eastwest;top=0;left=0;right=0;bottom=0;" parent="J982HRqRmG_ACasxhhEj-13" vertex="1"><mxGeometry y="30" width="180" height="30" as="geometry"/></mxCell><mxCell id="J982HRqRmG_ACasxhhEj-15" value="PK,FK1" style="shape=partialRectangle;connectable=0;fillColor=none;top=0;left=0;bottom=0;right=0;fontStyle=1;overflow=hidden;" parent="J982HRqRmG_ACasxhhEj-14" vertex="1"><mxGeometry width="60" height="30" as="geometry"><mxRectangle width="60" height="30" as="alternateBounds"/></mxGeometry></mxCell><mxCell id="J982HRqRmG_ACasxhhEj-16" value="group_id" style="shape=partialRectangle;connectable=0;fillColor=none;top=0;left=0;bottom=0;right=0;align=left;spacingLeft=6;fontStyle=5;overflow=hidden;" parent="J982HRqRmG_ACasxhhEj-14" vertex="1"><mxGeometry x="60" width="120" height="30" as="geometry"><mxRectangle width="120" height="30" as="alternateBounds"/></mxGeometry></mxCell><mxCell id="J982HRqRmG_ACasxhhEj-17" value="" style="shape=tableRow;horizontal=0;startSize=0;swimlaneHead=0;swimlaneBody=0;fillColor=none;collapsible=0;dropTarget=0;points=[[0,0.5],[1,0.5]];portConstraint=eastwest;top=0;left=0;right=0;bottom=1;" parent="J982HRqRmG_ACasxhhEj-13" vertex="1"><mxGeometry y="60" width="180" height="30" as="geometry"/></mxCell><mxCell id="J982HRqRmG_ACasxhhEj-18" value="PK,FK2" style="shape=partialRectangle;connectable=0;fillColor=none;top=0;left=0;bottom=0;right=0;fontStyle=1;overflow=hidden;" parent="J982HRqRmG_ACasxhhEj-17" vertex="1"><mxGeometry width="60" height="30" as="geometry"><mxRectangle width="60" height="30" as="alternateBounds"/></mxGeometry></mxCell><mxCell id="J982HRqRmG_ACasxhhEj-19" value="region_id" style="shape=partialRectangle;connectable=0;fillColor=none;top=0;left=0;bottom=0;right=0;align=left;spacingLeft=6;fontStyle=5;overflow=hidden;" parent="J982HRqRmG_ACasxhhEj-17" vertex="1"><mxGeometry x="60" width="120" height="30" as="geometry"><mxRectangle width="120" height="30" as="alternateBounds"/></mxGeometry></mxCell><mxCell id="J982HRqRmG_ACasxhhEj-26" value="" style="edgeStyle=entityRelationEdgeStyle;fontSize=12;html=1;endArrow=ERoneToMany;startArrow=ERmandOne;rounded=0;entryX=0;entryY=0.5;entryDx=0;entryDy=0;exitX=1;exitY=0.5;exitDx=0;exitDy=0;" parent="1-zc6NKqaTkRuJo8INhq-1" source="gtKfPHj4ghWmXjD3cdZ4-1" target="J982HRqRmG_ACasxhhEj-14" edge="1"><mxGeometry width="100" height="100" relative="1" as="geometry"><mxPoint x="250" y="640" as="sourcePoint"/><mxPoint x="350" y="540" as="targetPoint"/></mxGeometry></mxCell><mxCell id="J982HRqRmG_ACasxhhEj-27" value="" style="edgeStyle=entityRelationEdgeStyle;fontSize=12;html=1;endArrow=ERoneToMany;startArrow=ERmandOne;rounded=0;entryX=1;entryY=0.5;entryDx=0;entryDy=0;exitX=0;exitY=0.5;exitDx=0;exitDy=0;" parent="1-zc6NKqaTkRuJo8INhq-1" source="0uw-YjeHDZbbh3-TQ7YD-1" target="J982HRqRmG_ACasxhhEj-17" edge="1"><mxGeometry width="100" height="100" relative="1" as="geometry"><mxPoint x="290" y="295" as="sourcePoint"/><mxPoint x="370" y="295" as="targetPoint"/></mxGeometry></mxCell><mxCell id="J982HRqRmG_ACasxhhEj-30" value="PRODUCT" style="shape=table;startSize=30;container=1;collapsible=1;childLayout=tableLayout;fixedRows=1;rowLines=0;fontStyle=1;align=center;resizeLast=1;fillColor=none;" parent="1-zc6NKqaTkRuJo8INhq-1" vertex="1"><mxGeometry x="990" y="820" width="180" height="120" as="geometry"/></mxCell><mxCell id="J982HRqRmG_ACasxhhEj-31" value="" style="shape=tableRow;horizontal=0;startSize=0;swimlaneHead=0;swimlaneBody=0;fillColor=none;collapsible=0;dropTarget=0;points=[[0,0.5],[1,0.5]];portConstraint=eastwest;top=0;left=0;right=0;bottom=1;" parent="J982HRqRmG_ACasxhhEj-30" vertex="1"><mxGeometry y="30" width="180" height="30" as="geometry"/></mxCell><mxCell id="J982HRqRmG_ACasxhhEj-32" value="PK" style="shape=partialRectangle;connectable=0;fillColor=none;top=0;left=0;bottom=0;right=0;fontStyle=1;overflow=hidden;" parent="J982HRqRmG_ACasxhhEj-31" vertex="1"><mxGeometry width="30" height="30" as="geometry"><mxRectangle width="30" height="30" as="alternateBounds"/></mxGeometry></mxCell><mxCell id="J982HRqRmG_ACasxhhEj-33" value="id" style="shape=partialRectangle;connectable=0;fillColor=none;top=0;left=0;bottom=0;right=0;align=left;spacingLeft=6;fontStyle=5;overflow=hidden;" parent="J982HRqRmG_ACasxhhEj-31" vertex="1"><mxGeometry x="30" width="150" height="30" as="geometry"><mxRectangle width="150" height="30" as="alternateBounds"/></mxGeometry></mxCell><mxCell id="6pmNV0-O6kokA9Te3GPW-0" value="" style="shape=partialRectangle;collapsible=0;dropTarget=0;pointerEvents=0;fillColor=none;top=0;left=0;bottom=0;right=0;points=[[0,0.5],[1,0.5]];portConstraint=eastwest;" vertex="1" parent="J982HRqRmG_ACasxhhEj-30"><mxGeometry y="60" width="180" height="30" as="geometry"/></mxCell><mxCell id="6pmNV0-O6kokA9Te3GPW-1" value="FK" style="shape=partialRectangle;connectable=0;fillColor=none;top=0;left=0;bottom=0;right=0;fontStyle=0;overflow=hidden;" vertex="1" parent="6pmNV0-O6kokA9Te3GPW-0"><mxGeometry width="30" height="30" as="geometry"><mxRectangle width="30" height="30" as="alternateBounds"/></mxGeometry></mxCell><mxCell id="6pmNV0-O6kokA9Te3GPW-2" value="category_id" style="shape=partialRectangle;connectable=0;fillColor=none;top=0;left=0;bottom=0;right=0;align=left;spacingLeft=6;fontStyle=0;overflow=hidden;" vertex="1" parent="6pmNV0-O6kokA9Te3GPW-0"><mxGeometry x="30" width="150" height="30" as="geometry"><mxRectangle width="150" height="30" as="alternateBounds"/></mxGeometry></mxCell><mxCell id="J982HRqRmG_ACasxhhEj-34" value="" style="shape=tableRow;horizontal=0;startSize=0;swimlaneHead=0;swimlaneBody=0;fillColor=none;collapsible=0;dropTarget=0;points=[[0,0.5],[1,0.5]];portConstraint=eastwest;top=0;left=0;right=0;bottom=0;" parent="J982HRqRmG_ACasxhhEj-30" vertex="1"><mxGeometry y="90" width="180" height="30" as="geometry"/></mxCell><mxCell id="J982HRqRmG_ACasxhhEj-35" value="" style="shape=partialRectangle;connectable=0;fillColor=none;top=0;left=0;bottom=0;right=0;editable=1;overflow=hidden;" parent="J982HRqRmG_ACasxhhEj-34" vertex="1"><mxGeometry width="30" height="30" as="geometry"><mxRectangle width="30" height="30" as="alternateBounds"/></mxGeometry></mxCell><mxCell id="J982HRqRmG_ACasxhhEj-36" value="name" style="shape=partialRectangle;connectable=0;fillColor=none;top=0;left=0;bottom=0;right=0;align=left;spacingLeft=6;overflow=hidden;" parent="J982HRqRmG_ACasxhhEj-34" vertex="1"><mxGeometry x="30" width="150" height="30" as="geometry"><mxRectangle width="150" height="30" as="alternateBounds"/></mxGeometry></mxCell><mxCell id="TfhwGxO5JWRCPwSZxyWL-13" value="POST" style="shape=table;startSize=30;container=1;collapsible=1;childLayout=tableLayout;fixedRows=1;rowLines=0;fontStyle=1;align=center;resizeLast=1;" parent="1-zc6NKqaTkRuJo8INhq-1" vertex="1"><mxGeometry x="110" y="470" width="180" height="240" as="geometry"/></mxCell><mxCell id="TfhwGxO5JWRCPwSZxyWL-14" value="" style="shape=tableRow;horizontal=0;startSize=0;swimlaneHead=0;swimlaneBody=0;fillColor=none;collapsible=0;dropTarget=0;points=[[0,0.5],[1,0.5]];portConstraint=eastwest;top=0;left=0;right=0;bottom=1;" parent="TfhwGxO5JWRCPwSZxyWL-13" vertex="1"><mxGeometry y="30" width="180" height="30" as="geometry"/></mxCell><mxCell id="TfhwGxO5JWRCPwSZxyWL-15" value="PK" style="shape=partialRectangle;connectable=0;fillColor=none;top=0;left=0;bottom=0;right=0;fontStyle=1;overflow=hidden;" parent="TfhwGxO5JWRCPwSZxyWL-14" vertex="1"><mxGeometry width="30" height="30" as="geometry"><mxRectangle width="30" height="30" as="alternateBounds"/></mxGeometry></mxCell><mxCell id="TfhwGxO5JWRCPwSZxyWL-16" value="id" style="shape=partialRectangle;connectable=0;fillColor=none;top=0;left=0;bottom=0;right=0;align=left;spacingLeft=6;fontStyle=5;overflow=hidden;" parent="TfhwGxO5JWRCPwSZxyWL-14" vertex="1"><mxGeometry x="30" width="150" height="30" as="geometry"><mxRectangle width="150" height="30" as="alternateBounds"/></mxGeometry></mxCell><mxCell id="TfhwGxO5JWRCPwSZxyWL-17" value="" style="shape=tableRow;horizontal=0;startSize=0;swimlaneHead=0;swimlaneBody=0;fillColor=none;collapsible=0;dropTarget=0;points=[[0,0.5],[1,0.5]];portConstraint=eastwest;top=0;left=0;right=0;bottom=0;" parent="TfhwGxO5JWRCPwSZxyWL-13" vertex="1"><mxGeometry y="60" width="180" height="30" as="geometry"/></mxCell><mxCell id="TfhwGxO5JWRCPwSZxyWL-18" value="" style="shape=partialRectangle;connectable=0;fillColor=none;top=0;left=0;bottom=0;right=0;editable=1;overflow=hidden;" parent="TfhwGxO5JWRCPwSZxyWL-17" vertex="1"><mxGeometry width="30" height="30" as="geometry"><mxRectangle width="30" height="30" as="alternateBounds"/></mxGeometry></mxCell><mxCell id="TfhwGxO5JWRCPwSZxyWL-19" value="url" style="shape=partialRectangle;connectable=0;fillColor=none;top=0;left=0;bottom=0;right=0;align=left;spacingLeft=6;overflow=hidden;" parent="TfhwGxO5JWRCPwSZxyWL-17" vertex="1"><mxGeometry x="30" width="150" height="30" as="geometry"><mxRectangle width="150" height="30" as="alternateBounds"/></mxGeometry></mxCell><mxCell id="KWxtUC2gX_yM5RaLvUjC-0" value="" style="shape=tableRow;horizontal=0;startSize=0;swimlaneHead=0;swimlaneBody=0;fillColor=none;collapsible=0;dropTarget=0;points=[[0,0.5],[1,0.5]];portConstraint=eastwest;top=0;left=0;right=0;bottom=0;" parent="TfhwGxO5JWRCPwSZxyWL-13" vertex="1"><mxGeometry y="90" width="180" height="30" as="geometry"/></mxCell><mxCell id="KWxtUC2gX_yM5RaLvUjC-1" value="" style="shape=partialRectangle;connectable=0;fillColor=none;top=0;left=0;bottom=0;right=0;editable=1;overflow=hidden;" parent="KWxtUC2gX_yM5RaLvUjC-0" vertex="1"><mxGeometry width="30" height="30" as="geometry"><mxRectangle width="30" height="30" as="alternateBounds"/></mxGeometry></mxCell><mxCell id="KWxtUC2gX_yM5RaLvUjC-2" value="date" style="shape=partialRectangle;connectable=0;fillColor=none;top=0;left=0;bottom=0;right=0;align=left;spacingLeft=6;overflow=hidden;" parent="KWxtUC2gX_yM5RaLvUjC-0" vertex="1"><mxGeometry x="30" width="150" height="30" as="geometry"><mxRectangle width="150" height="30" as="alternateBounds"/></mxGeometry></mxCell><mxCell id="KWxtUC2gX_yM5RaLvUjC-3" value="" style="shape=tableRow;horizontal=0;startSize=0;swimlaneHead=0;swimlaneBody=0;fillColor=none;collapsible=0;dropTarget=0;points=[[0,0.5],[1,0.5]];portConstraint=eastwest;top=0;left=0;right=0;bottom=0;" parent="TfhwGxO5JWRCPwSZxyWL-13" vertex="1"><mxGeometry y="120" width="180" height="30" as="geometry"/></mxCell><mxCell id="KWxtUC2gX_yM5RaLvUjC-4" value="" style="shape=partialRectangle;connectable=0;fillColor=none;top=0;left=0;bottom=0;right=0;editable=1;overflow=hidden;" parent="KWxtUC2gX_yM5RaLvUjC-3" vertex="1"><mxGeometry width="30" height="30" as="geometry"><mxRectangle width="30" height="30" as="alternateBounds"/></mxGeometry></mxCell><mxCell id="KWxtUC2gX_yM5RaLvUjC-5" value="attachments" style="shape=partialRectangle;connectable=0;fillColor=none;top=0;left=0;bottom=0;right=0;align=left;spacingLeft=6;overflow=hidden;" parent="KWxtUC2gX_yM5RaLvUjC-3" vertex="1"><mxGeometry x="30" width="150" height="30" as="geometry"><mxRectangle width="150" height="30" as="alternateBounds"/></mxGeometry></mxCell><mxCell id="KWxtUC2gX_yM5RaLvUjC-6" value="" style="shape=tableRow;horizontal=0;startSize=0;swimlaneHead=0;swimlaneBody=0;fillColor=none;collapsible=0;dropTarget=0;points=[[0,0.5],[1,0.5]];portConstraint=eastwest;top=0;left=0;right=0;bottom=0;" parent="TfhwGxO5JWRCPwSZxyWL-13" vertex="1"><mxGeometry y="150" width="180" height="30" as="geometry"/></mxCell><mxCell id="KWxtUC2gX_yM5RaLvUjC-7" value="" style="shape=partialRectangle;connectable=0;fillColor=none;top=0;left=0;bottom=0;right=0;editable=1;overflow=hidden;" parent="KWxtUC2gX_yM5RaLvUjC-6" vertex="1"><mxGeometry width="30" height="30" as="geometry"><mxRectangle width="30" height="30" as="alternateBounds"/></mxGeometry></mxCell><mxCell id="KWxtUC2gX_yM5RaLvUjC-8" value="text" style="shape=partialRectangle;connectable=0;fillColor=none;top=0;left=0;bottom=0;right=0;align=left;spacingLeft=6;overflow=hidden;" parent="KWxtUC2gX_yM5RaLvUjC-6" vertex="1"><mxGeometry x="30" width="150" height="30" as="geometry"><mxRectangle width="150" height="30" as="alternateBounds"/></mxGeometry></mxCell><mxCell id="KWxtUC2gX_yM5RaLvUjC-9" value="" style="shape=tableRow;horizontal=0;startSize=0;swimlaneHead=0;swimlaneBody=0;fillColor=none;collapsible=0;dropTarget=0;points=[[0,0.5],[1,0.5]];portConstraint=eastwest;top=0;left=0;right=0;bottom=0;" parent="TfhwGxO5JWRCPwSZxyWL-13" vertex="1"><mxGeometry y="180" width="180" height="30" as="geometry"/></mxCell><mxCell id="KWxtUC2gX_yM5RaLvUjC-10" value="" style="shape=partialRectangle;connectable=0;fillColor=none;top=0;left=0;bottom=0;right=0;editable=1;overflow=hidden;" parent="KWxtUC2gX_yM5RaLvUjC-9" vertex="1"><mxGeometry width="30" height="30" as="geometry"><mxRectangle width="30" height="30" as="alternateBounds"/></mxGeometry></mxCell><mxCell id="KWxtUC2gX_yM5RaLvUjC-11" value="lat" style="shape=partialRectangle;connectable=0;fillColor=none;top=0;left=0;bottom=0;right=0;align=left;spacingLeft=6;overflow=hidden;" parent="KWxtUC2gX_yM5RaLvUjC-9" vertex="1"><mxGeometry x="30" width="150" height="30" as="geometry"><mxRectangle width="150" height="30" as="alternateBounds"/></mxGeometry></mxCell><mxCell id="3nH9Qo-wN_sgCFotB7iW-0" value="" style="shape=tableRow;horizontal=0;startSize=0;swimlaneHead=0;swimlaneBody=0;fillColor=none;collapsible=0;dropTarget=0;points=[[0,0.5],[1,0.5]];portConstraint=eastwest;top=0;left=0;right=0;bottom=0;" parent="TfhwGxO5JWRCPwSZxyWL-13" vertex="1"><mxGeometry y="210" width="180" height="30" as="geometry"/></mxCell><mxCell id="3nH9Qo-wN_sgCFotB7iW-1" value="" style="shape=partialRectangle;connectable=0;fillColor=none;top=0;left=0;bottom=0;right=0;editable=1;overflow=hidden;" parent="3nH9Qo-wN_sgCFotB7iW-0" vertex="1"><mxGeometry width="30" height="30" as="geometry"><mxRectangle width="30" height="30" as="alternateBounds"/></mxGeometry></mxCell><mxCell id="3nH9Qo-wN_sgCFotB7iW-2" value="lon" style="shape=partialRectangle;connectable=0;fillColor=none;top=0;left=0;bottom=0;right=0;align=left;spacingLeft=6;overflow=hidden;" parent="3nH9Qo-wN_sgCFotB7iW-0" vertex="1"><mxGeometry x="30" width="150" height="30" as="geometry"><mxRectangle width="150" height="30" as="alternateBounds"/></mxGeometry></mxCell><mxCell id="57-h95Q0c7G6ufzv3-66-0" value="TG_USER" style="shape=table;startSize=30;container=1;collapsible=1;childLayout=tableLayout;fixedRows=1;rowLines=0;fontStyle=1;align=center;resizeLast=1;fillColor=none;" parent="1-zc6NKqaTkRuJo8INhq-1" vertex="1"><mxGeometry x="360" y="840" width="180" height="150" as="geometry"/></mxCell><mxCell id="57-h95Q0c7G6ufzv3-66-1" value="" style="shape=tableRow;horizontal=0;startSize=0;swimlaneHead=0;swimlaneBody=0;fillColor=none;collapsible=0;dropTarget=0;points=[[0,0.5],[1,0.5]];portConstraint=eastwest;top=0;left=0;right=0;bottom=1;" parent="57-h95Q0c7G6ufzv3-66-0" vertex="1"><mxGeometry y="30" width="180" height="30" as="geometry"/></mxCell><mxCell id="57-h95Q0c7G6ufzv3-66-2" value="PK" style="shape=partialRectangle;connectable=0;fillColor=none;top=0;left=0;bottom=0;right=0;fontStyle=1;overflow=hidden;" parent="57-h95Q0c7G6ufzv3-66-1" vertex="1"><mxGeometry width="30" height="30" as="geometry"><mxRectangle width="30" height="30" as="alternateBounds"/></mxGeometry></mxCell><mxCell id="57-h95Q0c7G6ufzv3-66-3" value="user_id" style="shape=partialRectangle;connectable=0;fillColor=none;top=0;left=0;bottom=0;right=0;align=left;spacingLeft=6;fontStyle=5;overflow=hidden;" parent="57-h95Q0c7G6ufzv3-66-1" vertex="1"><mxGeometry x="30" width="150" height="30" as="geometry"><mxRectangle width="150" height="30" as="alternateBounds"/></mxGeometry></mxCell><mxCell id="57-h95Q0c7G6ufzv3-66-4" value="" style="shape=tableRow;horizontal=0;startSize=0;swimlaneHead=0;swimlaneBody=0;fillColor=none;collapsible=0;dropTarget=0;points=[[0,0.5],[1,0.5]];portConstraint=eastwest;top=0;left=0;right=0;bottom=0;" parent="57-h95Q0c7G6ufzv3-66-0" vertex="1"><mxGeometry y="60" width="180" height="30" as="geometry"/></mxCell><mxCell id="57-h95Q0c7G6ufzv3-66-5" value="" style="shape=partialRectangle;connectable=0;fillColor=none;top=0;left=0;bottom=0;right=0;editable=1;overflow=hidden;" parent="57-h95Q0c7G6ufzv3-66-4" vertex="1"><mxGeometry width="30" height="30" as="geometry"><mxRectangle width="30" height="30" as="alternateBounds"/></mxGeometry></mxCell><mxCell id="57-h95Q0c7G6ufzv3-66-6" value="active" style="shape=partialRectangle;connectable=0;fillColor=none;top=0;left=0;bottom=0;right=0;align=left;spacingLeft=6;overflow=hidden;" parent="57-h95Q0c7G6ufzv3-66-4" vertex="1"><mxGeometry x="30" width="150" height="30" as="geometry"><mxRectangle width="150" height="30" as="alternateBounds"/></mxGeometry></mxCell><mxCell id="57-h95Q0c7G6ufzv3-66-7" value="" style="shape=tableRow;horizontal=0;startSize=0;swimlaneHead=0;swimlaneBody=0;fillColor=none;collapsible=0;dropTarget=0;points=[[0,0.5],[1,0.5]];portConstraint=eastwest;top=0;left=0;right=0;bottom=0;" parent="57-h95Q0c7G6ufzv3-66-0" vertex="1"><mxGeometry y="90" width="180" height="30" as="geometry"/></mxCell><mxCell id="57-h95Q0c7G6ufzv3-66-8" value="" style="shape=partialRectangle;connectable=0;fillColor=none;top=0;left=0;bottom=0;right=0;editable=1;overflow=hidden;" parent="57-h95Q0c7G6ufzv3-66-7" vertex="1"><mxGeometry width="30" height="30" as="geometry"><mxRectangle width="30" height="30" as="alternateBounds"/></mxGeometry></mxCell><mxCell id="57-h95Q0c7G6ufzv3-66-9" value="session_name" style="shape=partialRectangle;connectable=0;fillColor=none;top=0;left=0;bottom=0;right=0;align=left;spacingLeft=6;overflow=hidden;" parent="57-h95Q0c7G6ufzv3-66-7" vertex="1"><mxGeometry x="30" width="150" height="30" as="geometry"><mxRectangle width="150" height="30" as="alternateBounds"/></mxGeometry></mxCell><mxCell id="57-h95Q0c7G6ufzv3-66-10" value="" style="shape=tableRow;horizontal=0;startSize=0;swimlaneHead=0;swimlaneBody=0;fillColor=none;collapsible=0;dropTarget=0;points=[[0,0.5],[1,0.5]];portConstraint=eastwest;top=0;left=0;right=0;bottom=0;" parent="57-h95Q0c7G6ufzv3-66-0" vertex="1"><mxGeometry y="120" width="180" height="30" as="geometry"/></mxCell><mxCell id="57-h95Q0c7G6ufzv3-66-11" value="" style="shape=partialRectangle;connectable=0;fillColor=none;top=0;left=0;bottom=0;right=0;editable=1;overflow=hidden;" parent="57-h95Q0c7G6ufzv3-66-10" vertex="1"><mxGeometry width="30" height="30" as="geometry"><mxRectangle width="30" height="30" as="alternateBounds"/></mxGeometry></mxCell><mxCell id="57-h95Q0c7G6ufzv3-66-12" value="session_step" style="shape=partialRectangle;connectable=0;fillColor=none;top=0;left=0;bottom=0;right=0;align=left;spacingLeft=6;overflow=hidden;" parent="57-h95Q0c7G6ufzv3-66-10" vertex="1"><mxGeometry x="30" width="150" height="30" as="geometry"><mxRectangle width="150" height="30" as="alternateBounds"/></mxGeometry></mxCell><mxCell id="RSt_vEefbEm9FmFzinPK-0" value="USER_PRODUCTS" style="shape=table;startSize=30;container=1;collapsible=1;childLayout=tableLayout;fixedRows=1;rowLines=0;fontStyle=1;align=center;resizeLast=1;fillColor=none;" parent="1-zc6NKqaTkRuJo8INhq-1" vertex="1"><mxGeometry x="610" y="840" width="180" height="90" as="geometry"/></mxCell><mxCell id="RSt_vEefbEm9FmFzinPK-1" value="" style="shape=tableRow;horizontal=0;startSize=0;swimlaneHead=0;swimlaneBody=0;fillColor=none;collapsible=0;dropTarget=0;points=[[0,0.5],[1,0.5]];portConstraint=eastwest;top=0;left=0;right=0;bottom=0;" parent="RSt_vEefbEm9FmFzinPK-0" vertex="1"><mxGeometry y="30" width="180" height="30" as="geometry"/></mxCell><mxCell id="RSt_vEefbEm9FmFzinPK-2" value="PK,FK1" style="shape=partialRectangle;connectable=0;fillColor=none;top=0;left=0;bottom=0;right=0;fontStyle=1;overflow=hidden;" parent="RSt_vEefbEm9FmFzinPK-1" vertex="1"><mxGeometry width="60" height="30" as="geometry"><mxRectangle width="60" height="30" as="alternateBounds"/></mxGeometry></mxCell><mxCell id="RSt_vEefbEm9FmFzinPK-3" value="user_id" style="shape=partialRectangle;connectable=0;fillColor=none;top=0;left=0;bottom=0;right=0;align=left;spacingLeft=6;fontStyle=5;overflow=hidden;" parent="RSt_vEefbEm9FmFzinPK-1" vertex="1"><mxGeometry x="60" width="120" height="30" as="geometry"><mxRectangle width="120" height="30" as="alternateBounds"/></mxGeometry></mxCell><mxCell id="RSt_vEefbEm9FmFzinPK-4" value="" style="shape=tableRow;horizontal=0;startSize=0;swimlaneHead=0;swimlaneBody=0;fillColor=none;collapsible=0;dropTarget=0;points=[[0,0.5],[1,0.5]];portConstraint=eastwest;top=0;left=0;right=0;bottom=1;" parent="RSt_vEefbEm9FmFzinPK-0" vertex="1"><mxGeometry y="60" width="180" height="30" as="geometry"/></mxCell><mxCell id="RSt_vEefbEm9FmFzinPK-5" value="PK,FK2" style="shape=partialRectangle;connectable=0;fillColor=none;top=0;left=0;bottom=0;right=0;fontStyle=1;overflow=hidden;" parent="RSt_vEefbEm9FmFzinPK-4" vertex="1"><mxGeometry width="60" height="30" as="geometry"><mxRectangle width="60" height="30" as="alternateBounds"/></mxGeometry></mxCell><mxCell id="RSt_vEefbEm9FmFzinPK-6" value="product_id" style="shape=partialRectangle;connectable=0;fillColor=none;top=0;left=0;bottom=0;right=0;align=left;spacingLeft=6;fontStyle=5;overflow=hidden;" parent="RSt_vEefbEm9FmFzinPK-4" vertex="1"><mxGeometry x="60" width="120" height="30" as="geometry"><mxRectangle width="120" height="30" as="alternateBounds"/></mxGeometry></mxCell><mxCell id="RSt_vEefbEm9FmFzinPK-45" value="PLACE" style="shape=table;startSize=30;container=1;collapsible=1;childLayout=tableLayout;fixedRows=1;rowLines=0;fontStyle=1;align=center;resizeLast=1;fillColor=none;" parent="1-zc6NKqaTkRuJo8INhq-1" vertex="1"><mxGeometry x="110" y="840" width="180" height="210" as="geometry"/></mxCell><mxCell id="RSt_vEefbEm9FmFzinPK-46" value="" style="shape=tableRow;horizontal=0;startSize=0;swimlaneHead=0;swimlaneBody=0;fillColor=none;collapsible=0;dropTarget=0;points=[[0,0.5],[1,0.5]];portConstraint=eastwest;top=0;left=0;right=0;bottom=1;" parent="RSt_vEefbEm9FmFzinPK-45" vertex="1"><mxGeometry y="30" width="180" height="30" as="geometry"/></mxCell><mxCell id="RSt_vEefbEm9FmFzinPK-47" value="PK" style="shape=partialRectangle;connectable=0;fillColor=none;top=0;left=0;bottom=0;right=0;fontStyle=1;overflow=hidden;" parent="RSt_vEefbEm9FmFzinPK-46" vertex="1"><mxGeometry width="30" height="30" as="geometry"><mxRectangle width="30" height="30" as="alternateBounds"/></mxGeometry></mxCell><mxCell id="RSt_vEefbEm9FmFzinPK-48" value="id" style="shape=partialRectangle;connectable=0;fillColor=none;top=0;left=0;bottom=0;right=0;align=left;spacingLeft=6;fontStyle=5;overflow=hidden;" parent="RSt_vEefbEm9FmFzinPK-46" vertex="1"><mxGeometry x="30" width="150" height="30" as="geometry"><mxRectangle width="150" height="30" as="alternateBounds"/></mxGeometry></mxCell><mxCell id="RSt_vEefbEm9FmFzinPK-63" value="" style="shape=tableRow;horizontal=0;startSize=0;swimlaneHead=0;swimlaneBody=0;fillColor=none;collapsible=0;dropTarget=0;points=[[0,0.5],[1,0.5]];portConstraint=eastwest;top=0;left=0;right=0;bottom=0;" parent="RSt_vEefbEm9FmFzinPK-45" vertex="1"><mxGeometry y="60" width="180" height="30" as="geometry"/></mxCell><mxCell id="RSt_vEefbEm9FmFzinPK-64" value="" style="shape=partialRectangle;connectable=0;fillColor=none;top=0;left=0;bottom=0;right=0;editable=1;overflow=hidden;" parent="RSt_vEefbEm9FmFzinPK-63" vertex="1"><mxGeometry width="30" height="30" as="geometry"><mxRectangle width="30" height="30" as="alternateBounds"/></mxGeometry></mxCell><mxCell id="RSt_vEefbEm9FmFzinPK-65" value="name" style="shape=partialRectangle;connectable=0;fillColor=none;top=0;left=0;bottom=0;right=0;align=left;spacingLeft=6;overflow=hidden;" parent="RSt_vEefbEm9FmFzinPK-63" vertex="1"><mxGeometry x="30" width="150" height="30" as="geometry"><mxRectangle width="150" height="30" as="alternateBounds"/></mxGeometry></mxCell><mxCell id="RSt_vEefbEm9FmFzinPK-49" value="" style="shape=tableRow;horizontal=0;startSize=0;swimlaneHead=0;swimlaneBody=0;fillColor=none;collapsible=0;dropTarget=0;points=[[0,0.5],[1,0.5]];portConstraint=eastwest;top=0;left=0;right=0;bottom=0;" parent="RSt_vEefbEm9FmFzinPK-45" vertex="1"><mxGeometry y="90" width="180" height="30" as="geometry"/></mxCell><mxCell id="RSt_vEefbEm9FmFzinPK-50" value="FK" style="shape=partialRectangle;connectable=0;fillColor=none;top=0;left=0;bottom=0;right=0;editable=1;overflow=hidden;" parent="RSt_vEefbEm9FmFzinPK-49" vertex="1"><mxGeometry width="30" height="30" as="geometry"><mxRectangle width="30" height="30" as="alternateBounds"/></mxGeometry></mxCell><mxCell id="RSt_vEefbEm9FmFzinPK-51" value="user_id" style="shape=partialRectangle;connectable=0;fillColor=none;top=0;left=0;bottom=0;right=0;align=left;spacingLeft=6;overflow=hidden;" parent="RSt_vEefbEm9FmFzinPK-49" vertex="1"><mxGeometry x="30" width="150" height="30" as="geometry"><mxRectangle width="150" height="30" as="alternateBounds"/></mxGeometry></mxCell><mxCell id="RSt_vEefbEm9FmFzinPK-52" value="" style="shape=tableRow;horizontal=0;startSize=0;swimlaneHead=0;swimlaneBody=0;fillColor=none;collapsible=0;dropTarget=0;points=[[0,0.5],[1,0.5]];portConstraint=eastwest;top=0;left=0;right=0;bottom=0;" parent="RSt_vEefbEm9FmFzinPK-45" vertex="1"><mxGeometry y="120" width="180" height="30" as="geometry"/></mxCell><mxCell id="RSt_vEefbEm9FmFzinPK-53" value="" style="shape=partialRectangle;connectable=0;fillColor=none;top=0;left=0;bottom=0;right=0;editable=1;overflow=hidden;" parent="RSt_vEefbEm9FmFzinPK-52" vertex="1"><mxGeometry width="30" height="30" as="geometry"><mxRectangle width="30" height="30" as="alternateBounds"/></mxGeometry></mxCell><mxCell id="RSt_vEefbEm9FmFzinPK-54" value="lat" style="shape=partialRectangle;connectable=0;fillColor=none;top=0;left=0;bottom=0;right=0;align=left;spacingLeft=6;overflow=hidden;" parent="RSt_vEefbEm9FmFzinPK-52" vertex="1"><mxGeometry x="30" width="150" height="30" as="geometry"><mxRectangle width="150" height="30" as="alternateBounds"/></mxGeometry></mxCell><mxCell id="RSt_vEefbEm9FmFzinPK-55" value="" style="shape=tableRow;horizontal=0;startSize=0;swimlaneHead=0;swimlaneBody=0;fillColor=none;collapsible=0;dropTarget=0;points=[[0,0.5],[1,0.5]];portConstraint=eastwest;top=0;left=0;right=0;bottom=0;" parent="RSt_vEefbEm9FmFzinPK-45" vertex="1"><mxGeometry y="150" width="180" height="30" as="geometry"/></mxCell><mxCell id="RSt_vEefbEm9FmFzinPK-56" value="" style="shape=partialRectangle;connectable=0;fillColor=none;top=0;left=0;bottom=0;right=0;editable=1;overflow=hidden;" parent="RSt_vEefbEm9FmFzinPK-55" vertex="1"><mxGeometry width="30" height="30" as="geometry"><mxRectangle width="30" height="30" as="alternateBounds"/></mxGeometry></mxCell><mxCell id="RSt_vEefbEm9FmFzinPK-57" value="lon" style="shape=partialRectangle;connectable=0;fillColor=none;top=0;left=0;bottom=0;right=0;align=left;spacingLeft=6;overflow=hidden;" parent="RSt_vEefbEm9FmFzinPK-55" vertex="1"><mxGeometry x="30" width="150" height="30" as="geometry"><mxRectangle width="150" height="30" as="alternateBounds"/></mxGeometry></mxCell><mxCell id="9bD6bRPEbZPt5pgZZO6u-0" value="" style="shape=tableRow;horizontal=0;startSize=0;swimlaneHead=0;swimlaneBody=0;fillColor=none;collapsible=0;dropTarget=0;points=[[0,0.5],[1,0.5]];portConstraint=eastwest;top=0;left=0;right=0;bottom=0;" parent="RSt_vEefbEm9FmFzinPK-45" vertex="1"><mxGeometry y="180" width="180" height="30" as="geometry"/></mxCell><mxCell id="9bD6bRPEbZPt5pgZZO6u-1" value="" style="shape=partialRectangle;connectable=0;fillColor=none;top=0;left=0;bottom=0;right=0;editable=1;overflow=hidden;" parent="9bD6bRPEbZPt5pgZZO6u-0" vertex="1"><mxGeometry width="30" height="30" as="geometry"><mxRectangle width="30" height="30" as="alternateBounds"/></mxGeometry></mxCell><mxCell id="9bD6bRPEbZPt5pgZZO6u-2" value="radius" style="shape=partialRectangle;connectable=0;fillColor=none;top=0;left=0;bottom=0;right=0;align=left;spacingLeft=6;overflow=hidden;" parent="9bD6bRPEbZPt5pgZZO6u-0" vertex="1"><mxGeometry x="30" width="150" height="30" as="geometry"><mxRectangle width="150" height="30" as="alternateBounds"/></mxGeometry></mxCell><mxCell id="9bD6bRPEbZPt5pgZZO6u-3" value="" style="edgeStyle=entityRelationEdgeStyle;fontSize=12;html=1;endArrow=ERzeroToMany;startArrow=ERmandOne;rounded=0;entryX=1;entryY=0.5;entryDx=0;entryDy=0;exitX=0;exitY=0.5;exitDx=0;exitDy=0;" parent="1-zc6NKqaTkRuJo8INhq-1" source="57-h95Q0c7G6ufzv3-66-1" target="RSt_vEefbEm9FmFzinPK-49" edge="1"><mxGeometry width="100" height="100" relative="1" as="geometry"><mxPoint x="460" y="860" as="sourcePoint"/><mxPoint x="560" y="760" as="targetPoint"/></mxGeometry></mxCell><mxCell id="9bD6bRPEbZPt5pgZZO6u-4" value="" style="edgeStyle=entityRelationEdgeStyle;fontSize=12;html=1;endArrow=ERzeroToMany;startArrow=ERmandOne;rounded=0;entryX=0;entryY=0.5;entryDx=0;entryDy=0;exitX=1;exitY=0.5;exitDx=0;exitDy=0;" parent="1-zc6NKqaTkRuJo8INhq-1" source="57-h95Q0c7G6ufzv3-66-1" target="RSt_vEefbEm9FmFzinPK-1" edge="1"><mxGeometry width="100" height="100" relative="1" as="geometry"><mxPoint x="370" y="885" as="sourcePoint"/><mxPoint x="290" y="945" as="targetPoint"/></mxGeometry></mxCell><mxCell id="9bD6bRPEbZPt5pgZZO6u-5" value="" style="edgeStyle=entityRelationEdgeStyle;fontSize=12;html=1;endArrow=ERzeroToMany;startArrow=ERmandOne;rounded=0;entryX=1;entryY=0.5;entryDx=0;entryDy=0;exitX=0;exitY=0.5;exitDx=0;exitDy=0;" parent="1-zc6NKqaTkRuJo8INhq-1" source="J982HRqRmG_ACasxhhEj-31" target="RSt_vEefbEm9FmFzinPK-4" edge="1"><mxGeometry width="100" height="100" relative="1" as="geometry"><mxPoint x="550" y="1165" as="sourcePoint"/><mxPoint x="620" y="1175" as="targetPoint"/></mxGeometry></mxCell><mxCell id="M8GTsX0eQOve5akt4QZG-0" value="POST_REGIONS" style="shape=table;startSize=30;container=1;collapsible=1;childLayout=tableLayout;fixedRows=1;rowLines=0;fontStyle=1;align=center;resizeLast=1;fillColor=none;" parent="1-zc6NKqaTkRuJo8INhq-1" vertex="1"><mxGeometry x="610" y="470" width="180" height="90" as="geometry"/></mxCell><mxCell id="M8GTsX0eQOve5akt4QZG-1" value="" style="shape=tableRow;horizontal=0;startSize=0;swimlaneHead=0;swimlaneBody=0;fillColor=none;collapsible=0;dropTarget=0;points=[[0,0.5],[1,0.5]];portConstraint=eastwest;top=0;left=0;right=0;bottom=0;" parent="M8GTsX0eQOve5akt4QZG-0" vertex="1"><mxGeometry y="30" width="180" height="30" as="geometry"/></mxCell><mxCell id="M8GTsX0eQOve5akt4QZG-2" value="PK,FK1" style="shape=partialRectangle;connectable=0;fillColor=none;top=0;left=0;bottom=0;right=0;fontStyle=1;overflow=hidden;" parent="M8GTsX0eQOve5akt4QZG-1" vertex="1"><mxGeometry width="60" height="30" as="geometry"><mxRectangle width="60" height="30" as="alternateBounds"/></mxGeometry></mxCell><mxCell id="M8GTsX0eQOve5akt4QZG-3" value="post_id" style="shape=partialRectangle;connectable=0;fillColor=none;top=0;left=0;bottom=0;right=0;align=left;spacingLeft=6;fontStyle=5;overflow=hidden;" parent="M8GTsX0eQOve5akt4QZG-1" vertex="1"><mxGeometry x="60" width="120" height="30" as="geometry"><mxRectangle width="120" height="30" as="alternateBounds"/></mxGeometry></mxCell><mxCell id="M8GTsX0eQOve5akt4QZG-4" value="" style="shape=tableRow;horizontal=0;startSize=0;swimlaneHead=0;swimlaneBody=0;fillColor=none;collapsible=0;dropTarget=0;points=[[0,0.5],[1,0.5]];portConstraint=eastwest;top=0;left=0;right=0;bottom=1;" parent="M8GTsX0eQOve5akt4QZG-0" vertex="1"><mxGeometry y="60" width="180" height="30" as="geometry"/></mxCell><mxCell id="M8GTsX0eQOve5akt4QZG-5" value="PK,FK2" style="shape=partialRectangle;connectable=0;fillColor=none;top=0;left=0;bottom=0;right=0;fontStyle=1;overflow=hidden;" parent="M8GTsX0eQOve5akt4QZG-4" vertex="1"><mxGeometry width="60" height="30" as="geometry"><mxRectangle width="60" height="30" as="alternateBounds"/></mxGeometry></mxCell><mxCell id="M8GTsX0eQOve5akt4QZG-6" value="region_id" style="shape=partialRectangle;connectable=0;fillColor=none;top=0;left=0;bottom=0;right=0;align=left;spacingLeft=6;fontStyle=5;overflow=hidden;" parent="M8GTsX0eQOve5akt4QZG-4" vertex="1"><mxGeometry x="60" width="120" height="30" as="geometry"><mxRectangle width="120" height="30" as="alternateBounds"/></mxGeometry></mxCell><mxCell id="M8GTsX0eQOve5akt4QZG-13" value="" style="edgeStyle=entityRelationEdgeStyle;fontSize=12;html=1;endArrow=ERzeroToMany;startArrow=ERmandOne;rounded=0;entryX=0;entryY=0.5;entryDx=0;entryDy=0;exitX=1;exitY=0.5;exitDx=0;exitDy=0;" parent="1-zc6NKqaTkRuJo8INhq-1" source="TfhwGxO5JWRCPwSZxyWL-14" target="M8GTsX0eQOve5akt4QZG-1" edge="1"><mxGeometry width="100" height="100" relative="1" as="geometry"><mxPoint x="970" y="925" as="sourcePoint"/><mxPoint x="800" y="955" as="targetPoint"/></mxGeometry></mxCell><mxCell id="M8GTsX0eQOve5akt4QZG-14" value="" style="edgeStyle=entityRelationEdgeStyle;fontSize=12;html=1;endArrow=ERzeroToMany;startArrow=ERmandOne;rounded=0;entryX=1;entryY=0.5;entryDx=0;entryDy=0;exitX=0;exitY=0.5;exitDx=0;exitDy=0;" parent="1-zc6NKqaTkRuJo8INhq-1" source="0uw-YjeHDZbbh3-TQ7YD-1" target="M8GTsX0eQOve5akt4QZG-4" edge="1"><mxGeometry width="100" height="100" relative="1" as="geometry"><mxPoint x="290" y="775" as="sourcePoint"/><mxPoint x="630" y="775" as="targetPoint"/></mxGeometry></mxCell><mxCell id="M8GTsX0eQOve5akt4QZG-15" value="POST_PRODUCTS" style="shape=table;startSize=30;container=1;collapsible=1;childLayout=tableLayout;fixedRows=1;rowLines=0;fontStyle=1;align=center;resizeLast=1;fillColor=none;" parent="1-zc6NKqaTkRuJo8INhq-1" vertex="1"><mxGeometry x="360" y="590" width="180" height="90" as="geometry"/></mxCell><mxCell id="M8GTsX0eQOve5akt4QZG-16" value="" style="shape=tableRow;horizontal=0;startSize=0;swimlaneHead=0;swimlaneBody=0;fillColor=none;collapsible=0;dropTarget=0;points=[[0,0.5],[1,0.5]];portConstraint=eastwest;top=0;left=0;right=0;bottom=0;" parent="M8GTsX0eQOve5akt4QZG-15" vertex="1"><mxGeometry y="30" width="180" height="30" as="geometry"/></mxCell><mxCell id="M8GTsX0eQOve5akt4QZG-17" value="PK,FK1" style="shape=partialRectangle;connectable=0;fillColor=none;top=0;left=0;bottom=0;right=0;fontStyle=1;overflow=hidden;" parent="M8GTsX0eQOve5akt4QZG-16" vertex="1"><mxGeometry width="60" height="30" as="geometry"><mxRectangle width="60" height="30" as="alternateBounds"/></mxGeometry></mxCell><mxCell id="M8GTsX0eQOve5akt4QZG-18" value="post_id" style="shape=partialRectangle;connectable=0;fillColor=none;top=0;left=0;bottom=0;right=0;align=left;spacingLeft=6;fontStyle=5;overflow=hidden;" parent="M8GTsX0eQOve5akt4QZG-16" vertex="1"><mxGeometry x="60" width="120" height="30" as="geometry"><mxRectangle width="120" height="30" as="alternateBounds"/></mxGeometry></mxCell><mxCell id="M8GTsX0eQOve5akt4QZG-19" value="" style="shape=tableRow;horizontal=0;startSize=0;swimlaneHead=0;swimlaneBody=0;fillColor=none;collapsible=0;dropTarget=0;points=[[0,0.5],[1,0.5]];portConstraint=eastwest;top=0;left=0;right=0;bottom=1;" parent="M8GTsX0eQOve5akt4QZG-15" vertex="1"><mxGeometry y="60" width="180" height="30" as="geometry"/></mxCell><mxCell id="M8GTsX0eQOve5akt4QZG-20" value="PK,FK2" style="shape=partialRectangle;connectable=0;fillColor=none;top=0;left=0;bottom=0;right=0;fontStyle=1;overflow=hidden;" parent="M8GTsX0eQOve5akt4QZG-19" vertex="1"><mxGeometry width="60" height="30" as="geometry"><mxRectangle width="60" height="30" as="alternateBounds"/></mxGeometry></mxCell><mxCell id="M8GTsX0eQOve5akt4QZG-21" value="product_id" style="shape=partialRectangle;connectable=0;fillColor=none;top=0;left=0;bottom=0;right=0;align=left;spacingLeft=6;fontStyle=5;overflow=hidden;" parent="M8GTsX0eQOve5akt4QZG-19" vertex="1"><mxGeometry x="60" width="120" height="30" as="geometry"><mxRectangle width="120" height="30" as="alternateBounds"/></mxGeometry></mxCell><mxCell id="M8GTsX0eQOve5akt4QZG-22" value="" style="edgeStyle=entityRelationEdgeStyle;fontSize=12;html=1;endArrow=ERzeroToMany;startArrow=ERmandOne;rounded=0;entryX=1;entryY=0.5;entryDx=0;entryDy=0;exitX=0;exitY=0.5;exitDx=0;exitDy=0;" parent="1-zc6NKqaTkRuJo8INhq-1" source="J982HRqRmG_ACasxhhEj-31" target="M8GTsX0eQOve5akt4QZG-19" edge="1"><mxGeometry width="100" height="100" relative="1" as="geometry"><mxPoint x="1160" y="295" as="sourcePoint"/><mxPoint x="810" y="805" as="targetPoint"/></mxGeometry></mxCell><mxCell id="M8GTsX0eQOve5akt4QZG-23" value="" style="edgeStyle=entityRelationEdgeStyle;fontSize=12;html=1;endArrow=ERzeroToMany;startArrow=ERmandOne;rounded=0;entryX=0;entryY=0.5;entryDx=0;entryDy=0;exitX=1;exitY=0.5;exitDx=0;exitDy=0;" parent="1-zc6NKqaTkRuJo8INhq-1" source="TfhwGxO5JWRCPwSZxyWL-14" target="M8GTsX0eQOve5akt4QZG-16" edge="1"><mxGeometry width="100" height="100" relative="1" as="geometry"><mxPoint x="290" y="525" as="sourcePoint"/><mxPoint x="630" y="525" as="targetPoint"/></mxGeometry></mxCell><mxCell id="2y_twOkwKT3gxRgmbpGN-4" value="VK-BOT" style="rounded=1;whiteSpace=wrap;html=1;fillColor=none;verticalAlign=top;fontStyle=1;dashed=1;" parent="1-zc6NKqaTkRuJo8INhq-1" vertex="1"><mxGeometry x="70" y="1150" width="760" height="280" as="geometry"/></mxCell><mxCell id="2y_twOkwKT3gxRgmbpGN-5" value="VK_USER" style="shape=table;startSize=30;container=1;collapsible=1;childLayout=tableLayout;fixedRows=1;rowLines=0;fontStyle=1;align=center;resizeLast=1;fillColor=none;" parent="1-zc6NKqaTkRuJo8INhq-1" vertex="1"><mxGeometry x="360" y="1180" width="180" height="150" as="geometry"/></mxCell><mxCell id="2y_twOkwKT3gxRgmbpGN-6" value="" style="shape=tableRow;horizontal=0;startSize=0;swimlaneHead=0;swimlaneBody=0;fillColor=none;collapsible=0;dropTarget=0;points=[[0,0.5],[1,0.5]];portConstraint=eastwest;top=0;left=0;right=0;bottom=1;" parent="2y_twOkwKT3gxRgmbpGN-5" vertex="1"><mxGeometry y="30" width="180" height="30" as="geometry"/></mxCell><mxCell id="2y_twOkwKT3gxRgmbpGN-7" value="PK" style="shape=partialRectangle;connectable=0;fillColor=none;top=0;left=0;bottom=0;right=0;fontStyle=1;overflow=hidden;" parent="2y_twOkwKT3gxRgmbpGN-6" vertex="1"><mxGeometry width="30" height="30" as="geometry"><mxRectangle width="30" height="30" as="alternateBounds"/></mxGeometry></mxCell><mxCell id="2y_twOkwKT3gxRgmbpGN-8" value="user_id" style="shape=partialRectangle;connectable=0;fillColor=none;top=0;left=0;bottom=0;right=0;align=left;spacingLeft=6;fontStyle=5;overflow=hidden;" parent="2y_twOkwKT3gxRgmbpGN-6" vertex="1"><mxGeometry x="30" width="150" height="30" as="geometry"><mxRectangle width="150" height="30" as="alternateBounds"/></mxGeometry></mxCell><mxCell id="2y_twOkwKT3gxRgmbpGN-9" value="" style="shape=tableRow;horizontal=0;startSize=0;swimlaneHead=0;swimlaneBody=0;fillColor=none;collapsible=0;dropTarget=0;points=[[0,0.5],[1,0.5]];portConstraint=eastwest;top=0;left=0;right=0;bottom=0;" parent="2y_twOkwKT3gxRgmbpGN-5" vertex="1"><mxGeometry y="60" width="180" height="30" as="geometry"/></mxCell><mxCell id="2y_twOkwKT3gxRgmbpGN-10" value="" style="shape=partialRectangle;connectable=0;fillColor=none;top=0;left=0;bottom=0;right=0;editable=1;overflow=hidden;" parent="2y_twOkwKT3gxRgmbpGN-9" vertex="1"><mxGeometry width="30" height="30" as="geometry"><mxRectangle width="30" height="30" as="alternateBounds"/></mxGeometry></mxCell><mxCell id="2y_twOkwKT3gxRgmbpGN-11" value="active" style="shape=partialRectangle;connectable=0;fillColor=none;top=0;left=0;bottom=0;right=0;align=left;spacingLeft=6;overflow=hidden;" parent="2y_twOkwKT3gxRgmbpGN-9" vertex="1"><mxGeometry x="30" width="150" height="30" as="geometry"><mxRectangle width="150" height="30" as="alternateBounds"/></mxGeometry></mxCell><mxCell id="2y_twOkwKT3gxRgmbpGN-12" value="" style="shape=tableRow;horizontal=0;startSize=0;swimlaneHead=0;swimlaneBody=0;fillColor=none;collapsible=0;dropTarget=0;points=[[0,0.5],[1,0.5]];portConstraint=eastwest;top=0;left=0;right=0;bottom=0;" parent="2y_twOkwKT3gxRgmbpGN-5" vertex="1"><mxGeometry y="90" width="180" height="30" as="geometry"/></mxCell><mxCell id="2y_twOkwKT3gxRgmbpGN-13" value="" style="shape=partialRectangle;connectable=0;fillColor=none;top=0;left=0;bottom=0;right=0;editable=1;overflow=hidden;" parent="2y_twOkwKT3gxRgmbpGN-12" vertex="1"><mxGeometry width="30" height="30" as="geometry"><mxRectangle width="30" height="30" as="alternateBounds"/></mxGeometry></mxCell><mxCell id="2y_twOkwKT3gxRgmbpGN-14" value="session_name" style="shape=partialRectangle;connectable=0;fillColor=none;top=0;left=0;bottom=0;right=0;align=left;spacingLeft=6;overflow=hidden;" parent="2y_twOkwKT3gxRgmbpGN-12" vertex="1"><mxGeometry x="30" width="150" height="30" as="geometry"><mxRectangle width="150" height="30" as="alternateBounds"/></mxGeometry></mxCell><mxCell id="2y_twOkwKT3gxRgmbpGN-15" value="" style="shape=tableRow;horizontal=0;startSize=0;swimlaneHead=0;swimlaneBody=0;fillColor=none;collapsible=0;dropTarget=0;points=[[0,0.5],[1,0.5]];portConstraint=eastwest;top=0;left=0;right=0;bottom=0;" parent="2y_twOkwKT3gxRgmbpGN-5" vertex="1"><mxGeometry y="120" width="180" height="30" as="geometry"/></mxCell><mxCell id="2y_twOkwKT3gxRgmbpGN-16" value="" style="shape=partialRectangle;connectable=0;fillColor=none;top=0;left=0;bottom=0;right=0;editable=1;overflow=hidden;" parent="2y_twOkwKT3gxRgmbpGN-15" vertex="1"><mxGeometry width="30" height="30" as="geometry"><mxRectangle width="30" height="30" as="alternateBounds"/></mxGeometry></mxCell><mxCell id="2y_twOkwKT3gxRgmbpGN-17" value="session_step" style="shape=partialRectangle;connectable=0;fillColor=none;top=0;left=0;bottom=0;right=0;align=left;spacingLeft=6;overflow=hidden;" parent="2y_twOkwKT3gxRgmbpGN-15" vertex="1"><mxGeometry x="30" width="150" height="30" as="geometry"><mxRectangle width="150" height="30" as="alternateBounds"/></mxGeometry></mxCell><mxCell id="2y_twOkwKT3gxRgmbpGN-18" value="USER_PRODUCTS" style="shape=table;startSize=30;container=1;collapsible=1;childLayout=tableLayout;fixedRows=1;rowLines=0;fontStyle=1;align=center;resizeLast=1;fillColor=none;" parent="1-zc6NKqaTkRuJo8INhq-1" vertex="1"><mxGeometry x="610" y="1180" width="180" height="90" as="geometry"/></mxCell><mxCell id="2y_twOkwKT3gxRgmbpGN-19" value="" style="shape=tableRow;horizontal=0;startSize=0;swimlaneHead=0;swimlaneBody=0;fillColor=none;collapsible=0;dropTarget=0;points=[[0,0.5],[1,0.5]];portConstraint=eastwest;top=0;left=0;right=0;bottom=0;" parent="2y_twOkwKT3gxRgmbpGN-18" vertex="1"><mxGeometry y="30" width="180" height="30" as="geometry"/></mxCell><mxCell id="2y_twOkwKT3gxRgmbpGN-20" value="PK,FK1" style="shape=partialRectangle;connectable=0;fillColor=none;top=0;left=0;bottom=0;right=0;fontStyle=1;overflow=hidden;" parent="2y_twOkwKT3gxRgmbpGN-19" vertex="1"><mxGeometry width="60" height="30" as="geometry"><mxRectangle width="60" height="30" as="alternateBounds"/></mxGeometry></mxCell><mxCell id="2y_twOkwKT3gxRgmbpGN-21" value="user_id" style="shape=partialRectangle;connectable=0;fillColor=none;top=0;left=0;bottom=0;right=0;align=left;spacingLeft=6;fontStyle=5;overflow=hidden;" parent="2y_twOkwKT3gxRgmbpGN-19" vertex="1"><mxGeometry x="60" width="120" height="30" as="geometry"><mxRectangle width="120" height="30" as="alternateBounds"/></mxGeometry></mxCell><mxCell id="2y_twOkwKT3gxRgmbpGN-22" value="" style="shape=tableRow;horizontal=0;startSize=0;swimlaneHead=0;swimlaneBody=0;fillColor=none;collapsible=0;dropTarget=0;points=[[0,0.5],[1,0.5]];portConstraint=eastwest;top=0;left=0;right=0;bottom=1;" parent="2y_twOkwKT3gxRgmbpGN-18" vertex="1"><mxGeometry y="60" width="180" height="30" as="geometry"/></mxCell><mxCell id="2y_twOkwKT3gxRgmbpGN-23" value="PK,FK2" style="shape=partialRectangle;connectable=0;fillColor=none;top=0;left=0;bottom=0;right=0;fontStyle=1;overflow=hidden;" parent="2y_twOkwKT3gxRgmbpGN-22" vertex="1"><mxGeometry width="60" height="30" as="geometry"><mxRectangle width="60" height="30" as="alternateBounds"/></mxGeometry></mxCell><mxCell id="2y_twOkwKT3gxRgmbpGN-24" value="product_id" style="shape=partialRectangle;connectable=0;fillColor=none;top=0;left=0;bottom=0;right=0;align=left;spacingLeft=6;fontStyle=5;overflow=hidden;" parent="2y_twOkwKT3gxRgmbpGN-22" vertex="1"><mxGeometry x="60" width="120" height="30" as="geometry"><mxRectangle width="120" height="30" as="alternateBounds"/></mxGeometry></mxCell><mxCell id="2y_twOkwKT3gxRgmbpGN-25" value="PLACE" style="shape=table;startSize=30;container=1;collapsible=1;childLayout=tableLayout;fixedRows=1;rowLines=0;fontStyle=1;align=center;resizeLast=1;fillColor=none;" parent="1-zc6NKqaTkRuJo8INhq-1" vertex="1"><mxGeometry x="110" y="1180" width="180" height="210" as="geometry"/></mxCell><mxCell id="2y_twOkwKT3gxRgmbpGN-26" value="" style="shape=tableRow;horizontal=0;startSize=0;swimlaneHead=0;swimlaneBody=0;fillColor=none;collapsible=0;dropTarget=0;points=[[0,0.5],[1,0.5]];portConstraint=eastwest;top=0;left=0;right=0;bottom=1;" parent="2y_twOkwKT3gxRgmbpGN-25" vertex="1"><mxGeometry y="30" width="180" height="30" as="geometry"/></mxCell><mxCell id="2y_twOkwKT3gxRgmbpGN-27" value="PK" style="shape=partialRectangle;connectable=0;fillColor=none;top=0;left=0;bottom=0;right=0;fontStyle=1;overflow=hidden;" parent="2y_twOkwKT3gxRgmbpGN-26" vertex="1"><mxGeometry width="30" height="30" as="geometry"><mxRectangle width="30" height="30" as="alternateBounds"/></mxGeometry></mxCell><mxCell id="2y_twOkwKT3gxRgmbpGN-28" value="id" style="shape=partialRectangle;connectable=0;fillColor=none;top=0;left=0;bottom=0;right=0;align=left;spacingLeft=6;fontStyle=5;overflow=hidden;" parent="2y_twOkwKT3gxRgmbpGN-26" vertex="1"><mxGeometry x="30" width="150" height="30" as="geometry"><mxRectangle width="150" height="30" as="alternateBounds"/></mxGeometry></mxCell><mxCell id="2y_twOkwKT3gxRgmbpGN-29" value="" style="shape=tableRow;horizontal=0;startSize=0;swimlaneHead=0;swimlaneBody=0;fillColor=none;collapsible=0;dropTarget=0;points=[[0,0.5],[1,0.5]];portConstraint=eastwest;top=0;left=0;right=0;bottom=0;" parent="2y_twOkwKT3gxRgmbpGN-25" vertex="1"><mxGeometry y="60" width="180" height="30" as="geometry"/></mxCell><mxCell id="2y_twOkwKT3gxRgmbpGN-30" value="" style="shape=partialRectangle;connectable=0;fillColor=none;top=0;left=0;bottom=0;right=0;editable=1;overflow=hidden;" parent="2y_twOkwKT3gxRgmbpGN-29" vertex="1"><mxGeometry width="30" height="30" as="geometry"><mxRectangle width="30" height="30" as="alternateBounds"/></mxGeometry></mxCell><mxCell id="2y_twOkwKT3gxRgmbpGN-31" value="name" style="shape=partialRectangle;connectable=0;fillColor=none;top=0;left=0;bottom=0;right=0;align=left;spacingLeft=6;overflow=hidden;" parent="2y_twOkwKT3gxRgmbpGN-29" vertex="1"><mxGeometry x="30" width="150" height="30" as="geometry"><mxRectangle width="150" height="30" as="alternateBounds"/></mxGeometry></mxCell><mxCell id="2y_twOkwKT3gxRgmbpGN-32" value="" style="shape=tableRow;horizontal=0;startSize=0;swimlaneHead=0;swimlaneBody=0;fillColor=none;collapsible=0;dropTarget=0;points=[[0,0.5],[1,0.5]];portConstraint=eastwest;top=0;left=0;right=0;bottom=0;" parent="2y_twOkwKT3gxRgmbpGN-25" vertex="1"><mxGeometry y="90" width="180" height="30" as="geometry"/></mxCell><mxCell id="2y_twOkwKT3gxRgmbpGN-33" value="FK" style="shape=partialRectangle;connectable=0;fillColor=none;top=0;left=0;bottom=0;right=0;editable=1;overflow=hidden;" parent="2y_twOkwKT3gxRgmbpGN-32" vertex="1"><mxGeometry width="30" height="30" as="geometry"><mxRectangle width="30" height="30" as="alternateBounds"/></mxGeometry></mxCell><mxCell id="2y_twOkwKT3gxRgmbpGN-34" value="user_id" style="shape=partialRectangle;connectable=0;fillColor=none;top=0;left=0;bottom=0;right=0;align=left;spacingLeft=6;overflow=hidden;" parent="2y_twOkwKT3gxRgmbpGN-32" vertex="1"><mxGeometry x="30" width="150" height="30" as="geometry"><mxRectangle width="150" height="30" as="alternateBounds"/></mxGeometry></mxCell><mxCell id="2y_twOkwKT3gxRgmbpGN-35" value="" style="shape=tableRow;horizontal=0;startSize=0;swimlaneHead=0;swimlaneBody=0;fillColor=none;collapsible=0;dropTarget=0;points=[[0,0.5],[1,0.5]];portConstraint=eastwest;top=0;left=0;right=0;bottom=0;" parent="2y_twOkwKT3gxRgmbpGN-25" vertex="1"><mxGeometry y="120" width="180" height="30" as="geometry"/></mxCell><mxCell id="2y_twOkwKT3gxRgmbpGN-36" value="" style="shape=partialRectangle;connectable=0;fillColor=none;top=0;left=0;bottom=0;right=0;editable=1;overflow=hidden;" parent="2y_twOkwKT3gxRgmbpGN-35" vertex="1"><mxGeometry width="30" height="30" as="geometry"><mxRectangle width="30" height="30" as="alternateBounds"/></mxGeometry></mxCell><mxCell id="2y_twOkwKT3gxRgmbpGN-37" value="lat" style="shape=partialRectangle;connectable=0;fillColor=none;top=0;left=0;bottom=0;right=0;align=left;spacingLeft=6;overflow=hidden;" parent="2y_twOkwKT3gxRgmbpGN-35" vertex="1"><mxGeometry x="30" width="150" height="30" as="geometry"><mxRectangle width="150" height="30" as="alternateBounds"/></mxGeometry></mxCell><mxCell id="2y_twOkwKT3gxRgmbpGN-38" value="" style="shape=tableRow;horizontal=0;startSize=0;swimlaneHead=0;swimlaneBody=0;fillColor=none;collapsible=0;dropTarget=0;points=[[0,0.5],[1,0.5]];portConstraint=eastwest;top=0;left=0;right=0;bottom=0;" parent="2y_twOkwKT3gxRgmbpGN-25" vertex="1"><mxGeometry y="150" width="180" height="30" as="geometry"/></mxCell><mxCell id="2y_twOkwKT3gxRgmbpGN-39" value="" style="shape=partialRectangle;connectable=0;fillColor=none;top=0;left=0;bottom=0;right=0;editable=1;overflow=hidden;" parent="2y_twOkwKT3gxRgmbpGN-38" vertex="1"><mxGeometry width="30" height="30" as="geometry"><mxRectangle width="30" height="30" as="alternateBounds"/></mxGeometry></mxCell><mxCell id="2y_twOkwKT3gxRgmbpGN-40" value="lon" style="shape=partialRectangle;connectable=0;fillColor=none;top=0;left=0;bottom=0;right=0;align=left;spacingLeft=6;overflow=hidden;" parent="2y_twOkwKT3gxRgmbpGN-38" vertex="1"><mxGeometry x="30" width="150" height="30" as="geometry"><mxRectangle width="150" height="30" as="alternateBounds"/></mxGeometry></mxCell><mxCell id="2y_twOkwKT3gxRgmbpGN-41" value="" style="shape=tableRow;horizontal=0;startSize=0;swimlaneHead=0;swimlaneBody=0;fillColor=none;collapsible=0;dropTarget=0;points=[[0,0.5],[1,0.5]];portConstraint=eastwest;top=0;left=0;right=0;bottom=0;" parent="2y_twOkwKT3gxRgmbpGN-25" vertex="1"><mxGeometry y="180" width="180" height="30" as="geometry"/></mxCell><mxCell id="2y_twOkwKT3gxRgmbpGN-42" value="" style="shape=partialRectangle;connectable=0;fillColor=none;top=0;left=0;bottom=0;right=0;editable=1;overflow=hidden;" parent="2y_twOkwKT3gxRgmbpGN-41" vertex="1"><mxGeometry width="30" height="30" as="geometry"><mxRectangle width="30" height="30" as="alternateBounds"/></mxGeometry></mxCell><mxCell id="2y_twOkwKT3gxRgmbpGN-43" value="radius" style="shape=partialRectangle;connectable=0;fillColor=none;top=0;left=0;bottom=0;right=0;align=left;spacingLeft=6;overflow=hidden;" parent="2y_twOkwKT3gxRgmbpGN-41" vertex="1"><mxGeometry x="30" width="150" height="30" as="geometry"><mxRectangle width="150" height="30" as="alternateBounds"/></mxGeometry></mxCell><mxCell id="2y_twOkwKT3gxRgmbpGN-44" value="" style="edgeStyle=entityRelationEdgeStyle;fontSize=12;html=1;endArrow=ERzeroToMany;startArrow=ERmandOne;rounded=0;entryX=1;entryY=0.5;entryDx=0;entryDy=0;exitX=0;exitY=0.5;exitDx=0;exitDy=0;" parent="1-zc6NKqaTkRuJo8INhq-1" source="2y_twOkwKT3gxRgmbpGN-6" target="2y_twOkwKT3gxRgmbpGN-32" edge="1"><mxGeometry width="100" height="100" relative="1" as="geometry"><mxPoint x="460" y="1200" as="sourcePoint"/><mxPoint x="560" y="1100" as="targetPoint"/></mxGeometry></mxCell><mxCell id="2y_twOkwKT3gxRgmbpGN-45" value="" style="edgeStyle=entityRelationEdgeStyle;fontSize=12;html=1;endArrow=ERzeroToMany;startArrow=ERmandOne;rounded=0;entryX=0;entryY=0.5;entryDx=0;entryDy=0;exitX=1;exitY=0.5;exitDx=0;exitDy=0;" parent="1-zc6NKqaTkRuJo8INhq-1" source="2y_twOkwKT3gxRgmbpGN-6" target="2y_twOkwKT3gxRgmbpGN-19" edge="1"><mxGeometry width="100" height="100" relative="1" as="geometry"><mxPoint x="370" y="1225" as="sourcePoint"/><mxPoint x="290" y="1285" as="targetPoint"/></mxGeometry></mxCell><mxCell id="2y_twOkwKT3gxRgmbpGN-46" value="" style="edgeStyle=entityRelationEdgeStyle;fontSize=12;html=1;endArrow=ERzeroToMany;startArrow=ERmandOne;rounded=0;entryX=1;entryY=0.5;entryDx=0;entryDy=0;exitX=0;exitY=0.5;exitDx=0;exitDy=0;" parent="1-zc6NKqaTkRuJo8INhq-1" source="J982HRqRmG_ACasxhhEj-31" target="2y_twOkwKT3gxRgmbpGN-22" edge="1"><mxGeometry width="100" height="100" relative="1" as="geometry"><mxPoint x="1020" y="905" as="sourcePoint"/><mxPoint x="810" y="995" as="targetPoint"/></mxGeometry></mxCell><mxCell id="6pmNV0-O6kokA9Te3GPW-3" value="Category" style="shape=table;startSize=30;container=1;collapsible=1;childLayout=tableLayout;fixedRows=1;rowLines=0;fontStyle=1;align=center;resizeLast=1;" vertex="1" parent="1-zc6NKqaTkRuJo8INhq-1"><mxGeometry x="990" y="990" width="180" height="90" as="geometry"/></mxCell><mxCell id="6pmNV0-O6kokA9Te3GPW-4" value="" style="shape=partialRectangle;collapsible=0;dropTarget=0;pointerEvents=0;fillColor=none;top=0;left=0;bottom=1;right=0;points=[[0,0.5],[1,0.5]];portConstraint=eastwest;" vertex="1" parent="6pmNV0-O6kokA9Te3GPW-3"><mxGeometry y="30" width="180" height="30" as="geometry"/></mxCell><mxCell id="6pmNV0-O6kokA9Te3GPW-5" value="PK" style="shape=partialRectangle;connectable=0;fillColor=none;top=0;left=0;bottom=0;right=0;fontStyle=1;overflow=hidden;" vertex="1" parent="6pmNV0-O6kokA9Te3GPW-4"><mxGeometry width="30" height="30" as="geometry"><mxRectangle width="30" height="30" as="alternateBounds"/></mxGeometry></mxCell><mxCell id="6pmNV0-O6kokA9Te3GPW-6" value="id" style="shape=partialRectangle;connectable=0;fillColor=none;top=0;left=0;bottom=0;right=0;align=left;spacingLeft=6;fontStyle=5;overflow=hidden;" vertex="1" parent="6pmNV0-O6kokA9Te3GPW-4"><mxGeometry x="30" width="150" height="30" as="geometry"><mxRectangle width="150" height="30" as="alternateBounds"/></mxGeometry></mxCell><mxCell id="6pmNV0-O6kokA9Te3GPW-7" value="" style="shape=partialRectangle;collapsible=0;dropTarget=0;pointerEvents=0;fillColor=none;top=0;left=0;bottom=0;right=0;points=[[0,0.5],[1,0.5]];portConstraint=eastwest;" vertex="1" parent="6pmNV0-O6kokA9Te3GPW-3"><mxGeometry y="60" width="180" height="30" as="geometry"/></mxCell><mxCell id="6pmNV0-O6kokA9Te3GPW-8" value="" style="shape=partialRectangle;connectable=0;fillColor=none;top=0;left=0;bottom=0;right=0;editable=1;overflow=hidden;" vertex="1" parent="6pmNV0-O6kokA9Te3GPW-7"><mxGeometry width="30" height="30" as="geometry"><mxRectangle width="30" height="30" as="alternateBounds"/></mxGeometry></mxCell><mxCell id="6pmNV0-O6kokA9Te3GPW-9" value="name" style="shape=partialRectangle;connectable=0;fillColor=none;top=0;left=0;bottom=0;right=0;align=left;spacingLeft=6;overflow=hidden;" vertex="1" parent="6pmNV0-O6kokA9Te3GPW-7"><mxGeometry x="30" width="150" height="30" as="geometry"><mxRectangle width="150" height="30" as="alternateBounds"/></mxGeometry></mxCell><mxCell id="6pmNV0-O6kokA9Te3GPW-16" value="" style="edgeStyle=entityRelationEdgeStyle;fontSize=12;html=1;endArrow=ERzeroToMany;startArrow=ERmandOne;rounded=0;entryX=1;entryY=0.5;entryDx=0;entryDy=0;exitX=1;exitY=0.5;exitDx=0;exitDy=0;" edge="1" parent="1-zc6NKqaTkRuJo8INhq-1" source="6pmNV0-O6kokA9Te3GPW-4" target="6pmNV0-O6kokA9Te3GPW-0"><mxGeometry width="100" height="100" relative="1" as="geometry"><mxPoint x="790" y="900" as="sourcePoint"/><mxPoint x="890" y="800" as="targetPoint"/></mxGeometry></mxCell></root></mxGraphModel></diagram><diagram id="ykuZbO70OBPEdtP0MpyT" name="RabbitMQ"><mxGraphModel dx="1422" dy="852" grid="1" gridSize="10" guides="1" tooltips="1" connect="1" arrows="1" fold="1" page="1" pageScale="1" pageWidth="850" pageHeight="1100" math="0" shadow="0"><root><mxCell id="wu7etNzMqxuGkfnHLLpg-0"/><mxCell id="wu7etNzMqxuGkfnHLLpg-1" parent="wu7etNzMqxuGkfnHLLpg-0"/><mxCell id="Pu3ATfYakh5Upt6jqFOu-8" style="rounded=0;orthogonalLoop=1;jettySize=auto;html=1;exitX=1;exitY=0.5;exitDx=0;exitDy=0;entryX=0;entryY=0.5;entryDx=0;entryDy=0;" parent="wu7etNzMqxuGkfnHLLpg-1" source="_B3EhGVcztM3Ub6mPnTy-2" target="Pu3ATfYakh5Upt6jqFOu-4" edge="1"><mxGeometry relative="1" as="geometry"/></mxCell><mxCell id="_B3EhGVcztM3Ub6mPnTy-2" value="Analyzer" style="rounded=1;whiteSpace=wrap;html=1;" parent="wu7etNzMqxuGkfnHLLpg-1" vertex="1"><mxGeometry x="520" y="220" width="80" height="80" as="geometry"/></mxCell><mxCell id="Pu3ATfYakh5Upt6jqFOu-0" style="rounded=0;orthogonalLoop=1;jettySize=auto;html=1;exitX=1;exitY=0.5;exitDx=0;exitDy=0;entryX=0;entryY=0.5;entryDx=0;entryDy=0;" parent="wu7etNzMqxuGkfnHLLpg-1" source="5k-Qg5JnwdRdWFL9p6wL-0" target="5k-Qg5JnwdRdWFL9p6wL-1" edge="1"><mxGeometry relative="1" as="geometry"/></mxCell><mxCell id="5k-Qg5JnwdRdWFL9p6wL-0" value="VK Parser" style="rounded=0;whiteSpace=wrap;html=1;" parent="wu7etNzMqxuGkfnHLLpg-1" vertex="1"><mxGeometry x="30" y="230" width="120" height="60" as="geometry"/></mxCell><mxCell id="Pu3ATfYakh5Upt6jqFOu-3" style="rounded=0;orthogonalLoop=1;jettySize=auto;html=1;exitX=1;exitY=0.5;exitDx=0;exitDy=0;entryX=0;entryY=0.5;entryDx=0;entryDy=0;" parent="wu7etNzMqxuGkfnHLLpg-1" source="Pu3ATfYakh5Upt6jqFOu-1" target="_B3EhGVcztM3Ub6mPnTy-2" edge="1"><mxGeometry relative="1" as="geometry"/></mxCell><mxCell id="Pu3ATfYakh5Upt6jqFOu-21" value="" style="group" parent="wu7etNzMqxuGkfnHLLpg-1" vertex="1" connectable="0"><mxGeometry x="170" y="180" width="310" height="140" as="geometry"/></mxCell><mxCell id="5k-Qg5JnwdRdWFL9p6wL-1" value="post-raw" style="ellipse;whiteSpace=wrap;html=1;aspect=fixed;" parent="Pu3ATfYakh5Upt6jqFOu-21" vertex="1"><mxGeometry x="20" y="40" width="80" height="80" as="geometry"/></mxCell><mxCell id="Pu3ATfYakh5Upt6jqFOu-1" value="post.raw.analyzer" style="rounded=1;whiteSpace=wrap;html=1;" parent="Pu3ATfYakh5Upt6jqFOu-21" vertex="1"><mxGeometry x="170" y="50" width="120" height="60" as="geometry"/></mxCell><mxCell id="Pu3ATfYakh5Upt6jqFOu-2" style="edgeStyle=orthogonalEdgeStyle;rounded=0;orthogonalLoop=1;jettySize=auto;html=1;exitX=1;exitY=0.5;exitDx=0;exitDy=0;entryX=0;entryY=0.5;entryDx=0;entryDy=0;dashed=1;" parent="Pu3ATfYakh5Upt6jqFOu-21" source="5k-Qg5JnwdRdWFL9p6wL-1" target="Pu3ATfYakh5Upt6jqFOu-1" edge="1"><mxGeometry relative="1" as="geometry"/></mxCell><mxCell id="Pu3ATfYakh5Upt6jqFOu-19" value="RabbitMQ" style="rounded=1;whiteSpace=wrap;html=1;dashed=1;dashPattern=1 4;verticalAlign=top;fillColor=none;" parent="Pu3ATfYakh5Upt6jqFOu-21" vertex="1"><mxGeometry width="310" height="140" as="geometry"/></mxCell><mxCell id="_B3EhGVcztM3Ub6mPnTy-4" value="TG Bot" style="rounded=1;whiteSpace=wrap;html=1;" parent="wu7etNzMqxuGkfnHLLpg-1" vertex="1"><mxGeometry x="1000" y="330" width="80" height="80" as="geometry"/></mxCell><mxCell id="Pu3ATfYakh5Upt6jqFOu-10" style="rounded=0;orthogonalLoop=1;jettySize=auto;html=1;exitX=1;exitY=0.5;exitDx=0;exitDy=0;entryX=0;entryY=0.5;entryDx=0;entryDy=0;" parent="wu7etNzMqxuGkfnHLLpg-1" source="Pu3ATfYakh5Upt6jqFOu-7" target="_B3EhGVcztM3Ub6mPnTy-4" edge="1"><mxGeometry relative="1" as="geometry"/></mxCell><mxCell id="_B3EhGVcztM3Ub6mPnTy-5" value="VK Bot" style="rounded=1;whiteSpace=wrap;html=1;" parent="wu7etNzMqxuGkfnHLLpg-1" vertex="1"><mxGeometry x="1000" y="220" width="80" height="80" as="geometry"/></mxCell><mxCell id="Pu3ATfYakh5Upt6jqFOu-12" style="rounded=0;orthogonalLoop=1;jettySize=auto;html=1;exitX=1;exitY=0.5;exitDx=0;exitDy=0;entryX=0;entryY=0.5;entryDx=0;entryDy=0;" parent="wu7etNzMqxuGkfnHLLpg-1" source="Pu3ATfYakh5Upt6jqFOu-6" target="_B3EhGVcztM3Ub6mPnTy-5" edge="1"><mxGeometry relative="1" as="geometry"/></mxCell><mxCell id="_B3EhGVcztM3Ub6mPnTy-3" value="IBot&lt;span style=&quot;color: rgba(0 , 0 , 0 , 0) ; font-family: monospace ; font-size: 0px&quot;&gt;%3CmxGraphModel%3E%3Croot%3E%3CmxCell%20id%3D%220%22%2F%3E%3CmxCell%20id%3D%221%22%20parent%3D%220%22%2F%3E%3CmxCell%20id%3D%222%22%20value%3D%22Analyzer%22%20style%3D%22rounded%3D1%3BwhiteSpace%3Dwrap%3Bhtml%3D1%3B%22%20vertex%3D%221%22%20parent%3D%221%22%3E%3CmxGeometry%20x%3D%22240%22%20y%3D%22470%22%20width%3D%2280%22%20height%3D%2280%22%20as%3D%22geometry%22%2F%3E%3C%2FmxCell%3E%3C%2Froot%3E%3C%2FmxGraphModel%3E&lt;/span&gt;" style="rounded=1;whiteSpace=wrap;html=1;" parent="wu7etNzMqxuGkfnHLLpg-1" vertex="1"><mxGeometry x="1000" y="110" width="80" height="80" as="geometry"/></mxCell><mxCell id="Pu3ATfYakh5Upt6jqFOu-14" style="rounded=0;orthogonalLoop=1;jettySize=auto;html=1;exitX=1;exitY=0.5;exitDx=0;exitDy=0;entryX=0;entryY=0.5;entryDx=0;entryDy=0;" parent="wu7etNzMqxuGkfnHLLpg-1" source="Pu3ATfYakh5Upt6jqFOu-5" target="_B3EhGVcztM3Ub6mPnTy-3" edge="1"><mxGeometry relative="1" as="geometry"/></mxCell><mxCell id="Pu3ATfYakh5Upt6jqFOu-24" value="" style="group" parent="wu7etNzMqxuGkfnHLLpg-1" vertex="1" connectable="0"><mxGeometry x="620" y="80" width="310" height="340" as="geometry"/></mxCell><mxCell id="Pu3ATfYakh5Upt6jqFOu-7" value="post.ready.tg" style="rounded=1;whiteSpace=wrap;html=1;" parent="Pu3ATfYakh5Upt6jqFOu-24" vertex="1"><mxGeometry x="170" y="260" width="120" height="60" as="geometry"/></mxCell><mxCell id="Pu3ATfYakh5Upt6jqFOu-4" value="post-ready" style="ellipse;whiteSpace=wrap;html=1;aspect=fixed;" parent="Pu3ATfYakh5Upt6jqFOu-24" vertex="1"><mxGeometry x="20" y="140" width="80" height="80" as="geometry"/></mxCell><mxCell id="Pu3ATfYakh5Upt6jqFOu-18" style="edgeStyle=none;rounded=0;orthogonalLoop=1;jettySize=auto;html=1;exitX=1;exitY=0.5;exitDx=0;exitDy=0;entryX=0;entryY=0.5;entryDx=0;entryDy=0;dashed=1;" parent="Pu3ATfYakh5Upt6jqFOu-24" source="Pu3ATfYakh5Upt6jqFOu-4" target="Pu3ATfYakh5Upt6jqFOu-7" edge="1"><mxGeometry relative="1" as="geometry"/></mxCell><mxCell id="Pu3ATfYakh5Upt6jqFOu-20" value="RabbitMQ" style="rounded=1;whiteSpace=wrap;html=1;dashed=1;dashPattern=1 4;verticalAlign=top;fillColor=none;" parent="Pu3ATfYakh5Upt6jqFOu-24" vertex="1"><mxGeometry width="310" height="340" as="geometry"/></mxCell><mxCell id="Pu3ATfYakh5Upt6jqFOu-6" value="post.ready.vk" style="rounded=1;whiteSpace=wrap;html=1;" parent="Pu3ATfYakh5Upt6jqFOu-24" vertex="1"><mxGeometry x="170" y="150" width="120" height="60" as="geometry"/></mxCell><mxCell id="Pu3ATfYakh5Upt6jqFOu-17" style="edgeStyle=none;rounded=0;orthogonalLoop=1;jettySize=auto;html=1;exitX=1;exitY=0.5;exitDx=0;exitDy=0;entryX=0;entryY=0.5;entryDx=0;entryDy=0;dashed=1;" parent="Pu3ATfYakh5Upt6jqFOu-24" source="Pu3ATfYakh5Upt6jqFOu-4" target="Pu3ATfYakh5Upt6jqFOu-6" edge="1"><mxGeometry relative="1" as="geometry"/></mxCell><mxCell id="Pu3ATfYakh5Upt6jqFOu-5" value="post.ready.ibot" style="rounded=1;whiteSpace=wrap;html=1;" parent="Pu3ATfYakh5Upt6jqFOu-24" vertex="1"><mxGeometry x="170" y="40" width="120" height="60" as="geometry"/></mxCell><mxCell id="Pu3ATfYakh5Upt6jqFOu-16" style="rounded=0;orthogonalLoop=1;jettySize=auto;html=1;exitX=1;exitY=0.5;exitDx=0;exitDy=0;entryX=0;entryY=0.5;entryDx=0;entryDy=0;dashed=1;" parent="Pu3ATfYakh5Upt6jqFOu-24" source="Pu3ATfYakh5Upt6jqFOu-4" target="Pu3ATfYakh5Upt6jqFOu-5" edge="1"><mxGeometry relative="1" as="geometry"/></mxCell></root></mxGraphModel></diagram><diagram id="85xUDkI6Gb397RHDgix3" name="Analyzer"><mxGraphModel dx="1422" dy="852" grid="1" gridSize="10" guides="1" tooltips="1" connect="1" arrows="1" fold="1" page="1" pageScale="1" pageWidth="850" pageHeight="1100" math="0" shadow="0"><root><mxCell id="dpIZYZNHyNjZL0GHp4U8-0"/><mxCell id="dpIZYZNHyNjZL0GHp4U8-1" parent="dpIZYZNHyNjZL0GHp4U8-0"/><mxCell id="IY_0yOYn_Ht2zV8m9pIv-1" style="rounded=0;orthogonalLoop=1;jettySize=auto;html=1;exitX=0.5;exitY=1;exitDx=0;exitDy=0;entryX=0.5;entryY=0;entryDx=0;entryDy=0;dashed=1;" parent="dpIZYZNHyNjZL0GHp4U8-1" source="gfFjj8881OftneJaP-iB-0" target="IY_0yOYn_Ht2zV8m9pIv-0" edge="1"><mxGeometry relative="1" as="geometry"/></mxCell><mxCell id="gfFjj8881OftneJaP-iB-0" value="post.raw.analyzer" style="rounded=1;whiteSpace=wrap;html=1;" parent="dpIZYZNHyNjZL0GHp4U8-1" vertex="1"><mxGeometry x="130" y="150" width="120" height="60" as="geometry"/></mxCell><mxCell id="IY_0yOYn_Ht2zV8m9pIv-0" value="Listener" style="whiteSpace=wrap;html=1;aspect=fixed;" parent="dpIZYZNHyNjZL0GHp4U8-1" vertex="1"><mxGeometry x="150" y="260" width="80" height="80" as="geometry"/></mxCell><mxCell id="IY_0yOYn_Ht2zV8m9pIv-2" style="rounded=0;orthogonalLoop=1;jettySize=auto;html=1;entryX=0.5;entryY=0;entryDx=0;entryDy=0;exitX=0.5;exitY=1;exitDx=0;exitDy=0;dashed=1;" parent="dpIZYZNHyNjZL0GHp4U8-1" source="IY_0yOYn_Ht2zV8m9pIv-4" target="jIV8EXEkX9b141LUkxat-0" edge="1"><mxGeometry relative="1" as="geometry"><mxPoint x="750" y="150" as="sourcePoint"/><mxPoint x="190" y="500" as="targetPoint"/></mxGeometry></mxCell><mxCell id="IY_0yOYn_Ht2zV8m9pIv-4" value="Producer" style="whiteSpace=wrap;html=1;aspect=fixed;" parent="dpIZYZNHyNjZL0GHp4U8-1" vertex="1"><mxGeometry x="150" y="370" width="80" height="80" as="geometry"/></mxCell><mxCell id="IY_0yOYn_Ht2zV8m9pIv-6" value="Lower" style="shape=process;whiteSpace=wrap;html=1;backgroundOutline=1;" parent="dpIZYZNHyNjZL0GHp4U8-1" vertex="1"><mxGeometry x="450" y="310" width="120" height="60" as="geometry"/></mxCell><mxCell id="IY_0yOYn_Ht2zV8m9pIv-8" value="Bag" style="shape=process;whiteSpace=wrap;html=1;backgroundOutline=1;" parent="dpIZYZNHyNjZL0GHp4U8-1" vertex="1"><mxGeometry x="390" y="480" width="120" height="60" as="geometry"/></mxCell><mxCell id="IY_0yOYn_Ht2zV8m9pIv-9" value="Lemmatization" style="shape=process;whiteSpace=wrap;html=1;backgroundOutline=1;" parent="dpIZYZNHyNjZL0GHp4U8-1" vertex="1"><mxGeometry x="260" y="560" width="120" height="60" as="geometry"/></mxCell><mxCell id="IY_0yOYn_Ht2zV8m9pIv-10" value="Filter" style="shape=process;whiteSpace=wrap;html=1;backgroundOutline=1;" parent="dpIZYZNHyNjZL0GHp4U8-1" vertex="1"><mxGeometry x="320" y="390" width="120" height="60" as="geometry"/></mxCell><mxCell id="IY_0yOYn_Ht2zV8m9pIv-11" value="Product search" style="shape=process;whiteSpace=wrap;html=1;backgroundOutline=1;" parent="dpIZYZNHyNjZL0GHp4U8-1" vertex="1"><mxGeometry x="520" y="610" width="120" height="60" as="geometry"/></mxCell><mxCell id="IY_0yOYn_Ht2zV8m9pIv-12" value="Geo search" style="shape=process;whiteSpace=wrap;html=1;backgroundOutline=1;" parent="dpIZYZNHyNjZL0GHp4U8-1" vertex="1"><mxGeometry x="520" y="690" width="120" height="60" as="geometry"/></mxCell><mxCell id="IY_0yOYn_Ht2zV8m9pIv-13" value="Tokenization" style="shape=process;whiteSpace=wrap;html=1;backgroundOutline=1;" parent="dpIZYZNHyNjZL0GHp4U8-1" vertex="1"><mxGeometry x="550" y="410" width="120" height="60" as="geometry"/></mxCell><mxCell id="jIV8EXEkX9b141LUkxat-0" value="post-ready" style="ellipse;whiteSpace=wrap;html=1;aspect=fixed;" parent="dpIZYZNHyNjZL0GHp4U8-1" vertex="1"><mxGeometry x="150" y="500" width="80" height="80" as="geometry"/></mxCell></root></mxGraphModel></diagram><diagram id="dK4zAK4baXhVC1jsrG2N" name="DFD 0"><mxGraphModel dx="1422" dy="852" grid="1" gridSize="10" guides="1" tooltips="1" connect="1" arrows="1" fold="1" page="1" pageScale="1" pageWidth="850" pageHeight="1100" math="0" shadow="0"><root><mxCell id="izeBJm5tSlde6GrhH4TB-0"/><mxCell id="izeBJm5tSlde6GrhH4TB-1" parent="izeBJm5tSlde6GrhH4TB-0"/><mxCell id="izeBJm5tSlde6GrhH4TB-5" value="Группа ВКонтакте" style="rounded=1;whiteSpace=wrap;html=1;" parent="izeBJm5tSlde6GrhH4TB-1" vertex="1"><mxGeometry y="540" width="80" height="80" as="geometry"/></mxCell><mxCell id="izeBJm5tSlde6GrhH4TB-6" value="Новый пост" style="endArrow=classic;html=1;rounded=0;exitX=1;exitY=0.5;exitDx=0;exitDy=0;entryX=0;entryY=0.5;entryDx=0;entryDy=0;" parent="izeBJm5tSlde6GrhH4TB-1" source="izeBJm5tSlde6GrhH4TB-5" target="izeBJm5tSlde6GrhH4TB-7" edge="1"><mxGeometry width="50" height="50" relative="1" as="geometry"><mxPoint x="240" y="610" as="sourcePoint"/><mxPoint x="250" y="580" as="targetPoint"/></mxGeometry></mxCell><mxCell id="izeBJm5tSlde6GrhH4TB-7" value="GetFood&lt;br&gt;Platform" style="ellipse;whiteSpace=wrap;html=1;aspect=fixed;" parent="izeBJm5tSlde6GrhH4TB-1" vertex="1"><mxGeometry x="370" y="530" width="100" height="100" as="geometry"/></mxCell><mxCell id="izeBJm5tSlde6GrhH4TB-8" value="Отправка сообщения &lt;br&gt;с ссылкой на пост" style="endArrow=classic;html=1;rounded=0;entryX=0;entryY=0.5;entryDx=0;entryDy=0;exitX=1;exitY=0;exitDx=0;exitDy=0;" parent="izeBJm5tSlde6GrhH4TB-1" source="izeBJm5tSlde6GrhH4TB-7" target="izeBJm5tSlde6GrhH4TB-9" edge="1"><mxGeometry width="50" height="50" relative="1" as="geometry"><mxPoint x="390" y="530" as="sourcePoint"/><mxPoint x="380" y="530" as="targetPoint"/></mxGeometry></mxCell><mxCell id="izeBJm5tSlde6GrhH4TB-9" value="Пользователь" style="rounded=1;whiteSpace=wrap;html=1;" parent="izeBJm5tSlde6GrhH4TB-1" vertex="1"><mxGeometry x="760" y="540" width="80" height="80" as="geometry"/></mxCell><mxCell id="dwYsCrpMAiF5FNoEjr7g-0" value="Изменение настроек поиска" style="endArrow=classic;html=1;rounded=0;entryX=1;entryY=1;entryDx=0;entryDy=0;exitX=0;exitY=0.75;exitDx=0;exitDy=0;" parent="izeBJm5tSlde6GrhH4TB-1" source="izeBJm5tSlde6GrhH4TB-9" target="izeBJm5tSlde6GrhH4TB-7" edge="1"><mxGeometry width="50" height="50" relative="1" as="geometry"><mxPoint x="350" y="610" as="sourcePoint"/><mxPoint x="400" y="560" as="targetPoint"/></mxGeometry></mxCell><mxCell id="oLAQWt9VkESiRy10x1ZW-0" value="Map API" style="rounded=1;whiteSpace=wrap;html=1;" parent="izeBJm5tSlde6GrhH4TB-1" vertex="1"><mxGeometry x="380" y="360" width="80" height="80" as="geometry"/></mxCell><mxCell id="oLAQWt9VkESiRy10x1ZW-1" value="Запрос информации&lt;br&gt;по геопозиции" style="endArrow=classic;html=1;rounded=0;entryX=0.25;entryY=1;entryDx=0;entryDy=0;exitX=0;exitY=0;exitDx=0;exitDy=0;" parent="izeBJm5tSlde6GrhH4TB-1" source="izeBJm5tSlde6GrhH4TB-7" target="oLAQWt9VkESiRy10x1ZW-0" edge="1"><mxGeometry x="-0.1276" y="62" width="50" height="50" relative="1" as="geometry"><mxPoint x="370" y="520" as="sourcePoint"/><mxPoint x="420" y="470" as="targetPoint"/><mxPoint as="offset"/></mxGeometry></mxCell><mxCell id="oLAQWt9VkESiRy10x1ZW-2" value="Результат запроса" style="endArrow=classic;html=1;rounded=0;exitX=0.75;exitY=1;exitDx=0;exitDy=0;entryX=1;entryY=0;entryDx=0;entryDy=0;" parent="izeBJm5tSlde6GrhH4TB-1" source="oLAQWt9VkESiRy10x1ZW-0" target="izeBJm5tSlde6GrhH4TB-7" edge="1"><mxGeometry x="0.1002" y="52" width="50" height="50" relative="1" as="geometry"><mxPoint x="550" y="480" as="sourcePoint"/><mxPoint x="600" y="430" as="targetPoint"/><mxPoint as="offset"/></mxGeometry></mxCell></root></mxGraphModel></diagram><diagram id="vp-1UWds_KywB5VY5EPU" name="DFD 1"><mxGraphModel dx="2272" dy="852" grid="1" gridSize="10" guides="1" tooltips="1" connect="1" arrows="1" fold="1" page="1" pageScale="1" pageWidth="850" pageHeight="1100" math="0" shadow="0"><root><mxCell id="rBR2V6Ndq5vLTO4xanbZ-0"/><mxCell id="rBR2V6Ndq5vLTO4xanbZ-1" parent="rBR2V6Ndq5vLTO4xanbZ-0"/><mxCell id="WUexHnHFRPfRSXijLUcV-0" value="Группа ВКонтакте" style="rounded=1;whiteSpace=wrap;html=1;" parent="rBR2V6Ndq5vLTO4xanbZ-1" vertex="1"><mxGeometry x="10" y="290" width="80" height="80" as="geometry"/></mxCell><mxCell id="WUexHnHFRPfRSXijLUcV-1" value="Пользователь" style="rounded=1;whiteSpace=wrap;html=1;" parent="rBR2V6Ndq5vLTO4xanbZ-1" vertex="1"><mxGeometry x="755" y="230" width="80" height="80" as="geometry"/></mxCell><mxCell id="WUexHnHFRPfRSXijLUcV-2" value="VK Parser" style="ellipse;whiteSpace=wrap;html=1;aspect=fixed;" parent="rBR2V6Ndq5vLTO4xanbZ-1" vertex="1"><mxGeometry x="10" y="470" width="80" height="80" as="geometry"/></mxCell><mxCell id="WUexHnHFRPfRSXijLUcV-3" value="Analyzer" style="ellipse;whiteSpace=wrap;html=1;aspect=fixed;" parent="rBR2V6Ndq5vLTO4xanbZ-1" vertex="1"><mxGeometry x="385" y="470" width="80" height="80" as="geometry"/></mxCell><mxCell id="WUexHnHFRPfRSXijLUcV-4" value="" style="endArrow=classic;html=1;rounded=0;entryX=0.5;entryY=0;entryDx=0;entryDy=0;exitX=0.5;exitY=1;exitDx=0;exitDy=0;" parent="rBR2V6Ndq5vLTO4xanbZ-1" source="WUexHnHFRPfRSXijLUcV-0" target="WUexHnHFRPfRSXijLUcV-2" edge="1"><mxGeometry width="50" height="50" relative="1" as="geometry"><mxPoint x="-70" y="520" as="sourcePoint"/><mxPoint x="-20" y="470" as="targetPoint"/></mxGeometry></mxCell><mxCell id="WUexHnHFRPfRSXijLUcV-6" value="IBot" style="ellipse;whiteSpace=wrap;html=1;aspect=fixed;" parent="rBR2V6Ndq5vLTO4xanbZ-1" vertex="1"><mxGeometry x="755" y="550" width="80" height="80" as="geometry"/></mxCell><mxCell id="WUexHnHFRPfRSXijLUcV-7" value="Bot" style="ellipse;whiteSpace=wrap;html=1;aspect=fixed;" parent="rBR2V6Ndq5vLTO4xanbZ-1" vertex="1"><mxGeometry x="755" y="390" width="80" height="80" as="geometry"/></mxCell><mxCell id="WUexHnHFRPfRSXijLUcV-10" value="" style="endArrow=classic;html=1;rounded=0;exitX=0;exitY=0;exitDx=0;exitDy=0;entryX=0.25;entryY=1;entryDx=0;entryDy=0;" parent="rBR2V6Ndq5vLTO4xanbZ-1" source="WUexHnHFRPfRSXijLUcV-7" target="WUexHnHFRPfRSXijLUcV-1" edge="1"><mxGeometry width="50" height="50" relative="1" as="geometry"><mxPoint x="895" y="400" as="sourcePoint"/><mxPoint x="945" y="350" as="targetPoint"/></mxGeometry></mxCell><mxCell id="WUexHnHFRPfRSXijLUcV-11" value="" style="endArrow=classic;html=1;rounded=0;entryX=1;entryY=0;entryDx=0;entryDy=0;exitX=0.75;exitY=1;exitDx=0;exitDy=0;" parent="rBR2V6Ndq5vLTO4xanbZ-1" source="WUexHnHFRPfRSXijLUcV-1" target="WUexHnHFRPfRSXijLUcV-7" edge="1"><mxGeometry width="50" height="50" relative="1" as="geometry"><mxPoint x="805" y="450" as="sourcePoint"/><mxPoint x="855" y="400" as="targetPoint"/></mxGeometry></mxCell><mxCell id="WUexHnHFRPfRSXijLUcV-13" value="" style="endArrow=classic;html=1;rounded=0;entryX=0.25;entryY=1;entryDx=0;entryDy=0;exitX=1;exitY=1;exitDx=0;exitDy=0;" parent="rBR2V6Ndq5vLTO4xanbZ-1" source="WUexHnHFRPfRSXijLUcV-6" target="WUexHnHFRPfRSXijLUcV-15" edge="1"><mxGeometry width="50" height="50" relative="1" as="geometry"><mxPoint x="805" y="510" as="sourcePoint"/><mxPoint x="795" y="700" as="targetPoint"/></mxGeometry></mxCell><mxCell id="WUexHnHFRPfRSXijLUcV-14" value="" style="endArrow=classic;html=1;rounded=0;entryX=1;entryY=0;entryDx=0;entryDy=0;exitX=1;exitY=1;exitDx=0;exitDy=0;" parent="rBR2V6Ndq5vLTO4xanbZ-1" source="WUexHnHFRPfRSXijLUcV-7" target="WUexHnHFRPfRSXijLUcV-6" edge="1"><mxGeometry width="50" height="50" relative="1" as="geometry"><mxPoint x="805" y="510" as="sourcePoint"/><mxPoint x="855" y="460" as="targetPoint"/></mxGeometry></mxCell><mxCell id="WUexHnHFRPfRSXijLUcV-15" value="Хранилище постов" style="html=1;dashed=0;whitespace=wrap;shape=partialRectangle;right=0;" parent="rBR2V6Ndq5vLTO4xanbZ-1" vertex="1"><mxGeometry x="930" y="575" width="180" height="30" as="geometry"/></mxCell><mxCell id="WUexHnHFRPfRSXijLUcV-17" value="Брокер постов" style="html=1;dashed=0;whitespace=wrap;shape=partialRectangle;right=0;" parent="rBR2V6Ndq5vLTO4xanbZ-1" vertex="1"><mxGeometry x="160" y="495" width="100" height="30" as="geometry"/></mxCell><mxCell id="WUexHnHFRPfRSXijLUcV-18" value="" style="endArrow=classic;html=1;rounded=0;entryX=1;entryY=0;entryDx=0;entryDy=0;exitX=0.25;exitY=0;exitDx=0;exitDy=0;" parent="rBR2V6Ndq5vLTO4xanbZ-1" source="WUexHnHFRPfRSXijLUcV-15" target="WUexHnHFRPfRSXijLUcV-6" edge="1"><mxGeometry width="50" height="50" relative="1" as="geometry"><mxPoint x="665" y="460" as="sourcePoint"/><mxPoint x="715" y="410" as="targetPoint"/></mxGeometry></mxCell><mxCell id="ajrd-QvVQ3Emm2LXJdLF-0" value="" style="endArrow=classic;html=1;rounded=0;entryX=0;entryY=0.5;entryDx=0;entryDy=0;exitX=1;exitY=0.5;exitDx=0;exitDy=0;" parent="rBR2V6Ndq5vLTO4xanbZ-1" source="WUexHnHFRPfRSXijLUcV-2" target="WUexHnHFRPfRSXijLUcV-17" edge="1"><mxGeometry width="50" height="50" relative="1" as="geometry"><mxPoint x="400" y="460" as="sourcePoint"/><mxPoint x="450" y="410" as="targetPoint"/></mxGeometry></mxCell><mxCell id="ajrd-QvVQ3Emm2LXJdLF-1" value="" style="endArrow=classic;html=1;rounded=0;exitX=1;exitY=0.5;exitDx=0;exitDy=0;entryX=0;entryY=0.5;entryDx=0;entryDy=0;" parent="rBR2V6Ndq5vLTO4xanbZ-1" source="WUexHnHFRPfRSXijLUcV-17" target="WUexHnHFRPfRSXijLUcV-3" edge="1"><mxGeometry width="50" height="50" relative="1" as="geometry"><mxPoint x="400" y="460" as="sourcePoint"/><mxPoint x="450" y="410" as="targetPoint"/></mxGeometry></mxCell><mxCell id="ajrd-QvVQ3Emm2LXJdLF-2" value="Брокер постов" style="html=1;dashed=0;whitespace=wrap;shape=partialRectangle;right=0;" parent="rBR2V6Ndq5vLTO4xanbZ-1" vertex="1"><mxGeometry x="580" y="495" width="100" height="30" as="geometry"/></mxCell><mxCell id="ajrd-QvVQ3Emm2LXJdLF-3" value="" style="endArrow=classic;html=1;rounded=0;entryX=0;entryY=0.5;entryDx=0;entryDy=0;exitX=1;exitY=0.5;exitDx=0;exitDy=0;" parent="rBR2V6Ndq5vLTO4xanbZ-1" source="WUexHnHFRPfRSXijLUcV-3" target="ajrd-QvVQ3Emm2LXJdLF-2" edge="1"><mxGeometry width="50" height="50" relative="1" as="geometry"><mxPoint x="280" y="375" as="sourcePoint"/><mxPoint x="650" y="275" as="targetPoint"/></mxGeometry></mxCell><mxCell id="ajrd-QvVQ3Emm2LXJdLF-4" value="" style="endArrow=classic;html=1;rounded=0;exitX=0.75;exitY=0;exitDx=0;exitDy=0;entryX=0;entryY=1;entryDx=0;entryDy=0;" parent="rBR2V6Ndq5vLTO4xanbZ-1" source="ajrd-QvVQ3Emm2LXJdLF-2" target="WUexHnHFRPfRSXijLUcV-7" edge="1"><mxGeometry width="50" height="50" relative="1" as="geometry"><mxPoint x="700" y="495" as="sourcePoint"/><mxPoint x="715" y="375" as="targetPoint"/></mxGeometry></mxCell><mxCell id="ajrd-QvVQ3Emm2LXJdLF-8" value="" style="endArrow=classic;html=1;rounded=0;entryX=0;entryY=0;entryDx=0;entryDy=0;exitX=0.75;exitY=1;exitDx=0;exitDy=0;" parent="rBR2V6Ndq5vLTO4xanbZ-1" source="ajrd-QvVQ3Emm2LXJdLF-2" target="WUexHnHFRPfRSXijLUcV-6" edge="1"><mxGeometry width="50" height="50" relative="1" as="geometry"><mxPoint x="700" y="525" as="sourcePoint"/><mxPoint x="625" y="410" as="targetPoint"/></mxGeometry></mxCell><mxCell id="F4_FC6QTrkteYdjYBfhk-0" value="" style="endArrow=classic;html=1;rounded=0;entryX=0.25;entryY=1;entryDx=0;entryDy=0;exitX=1;exitY=1;exitDx=0;exitDy=0;" parent="rBR2V6Ndq5vLTO4xanbZ-1" source="WUexHnHFRPfRSXijLUcV-7" target="F4_FC6QTrkteYdjYBfhk-1" edge="1"><mxGeometry width="50" height="50" relative="1" as="geometry"><mxPoint x="1001.7157287525379" y="350.00427124746216" as="sourcePoint"/><mxPoint x="1030" y="431.72" as="targetPoint"/></mxGeometry></mxCell><mxCell id="F4_FC6QTrkteYdjYBfhk-1" value="Хранилище пользователей" style="html=1;dashed=0;whitespace=wrap;shape=partialRectangle;right=0;" parent="rBR2V6Ndq5vLTO4xanbZ-1" vertex="1"><mxGeometry x="930" y="415" width="180" height="30" as="geometry"/></mxCell><mxCell id="F4_FC6QTrkteYdjYBfhk-2" value="" style="endArrow=classic;html=1;rounded=0;entryX=1;entryY=0;entryDx=0;entryDy=0;exitX=0.25;exitY=0;exitDx=0;exitDy=0;" parent="rBR2V6Ndq5vLTO4xanbZ-1" source="F4_FC6QTrkteYdjYBfhk-1" target="WUexHnHFRPfRSXijLUcV-7" edge="1"><mxGeometry width="50" height="50" relative="1" as="geometry"><mxPoint x="900" y="191.72000000000003" as="sourcePoint"/><mxPoint x="1058.2842712474621" y="350.00427124746216" as="targetPoint"/></mxGeometry></mxCell><mxCell id="F4_FC6QTrkteYdjYBfhk-3" value="" style="endArrow=classic;html=1;rounded=0;entryX=0.25;entryY=0;entryDx=0;entryDy=0;exitX=0;exitY=1;exitDx=0;exitDy=0;" parent="rBR2V6Ndq5vLTO4xanbZ-1" source="WUexHnHFRPfRSXijLUcV-3" target="F4_FC6QTrkteYdjYBfhk-4" edge="1"><mxGeometry width="50" height="50" relative="1" as="geometry"><mxPoint x="360" y="550" as="sourcePoint"/><mxPoint x="425" y="615.86" as="targetPoint"/></mxGeometry></mxCell><mxCell id="F4_FC6QTrkteYdjYBfhk-4" value="Хранилище продуктов" style="html=1;dashed=0;whitespace=wrap;shape=partialRectangle;right=0;" parent="rBR2V6Ndq5vLTO4xanbZ-1" vertex="1"><mxGeometry x="375" y="615.86" width="100" height="30" as="geometry"/></mxCell><mxCell id="F4_FC6QTrkteYdjYBfhk-5" value="" style="endArrow=classic;html=1;rounded=0;exitX=0.75;exitY=0;exitDx=0;exitDy=0;entryX=1;entryY=1;entryDx=0;entryDy=0;" parent="rBR2V6Ndq5vLTO4xanbZ-1" source="F4_FC6QTrkteYdjYBfhk-4" target="WUexHnHFRPfRSXijLUcV-3" edge="1"><mxGeometry width="50" height="50" relative="1" as="geometry"><mxPoint x="295" y="375.86" as="sourcePoint"/><mxPoint x="490" y="560" as="targetPoint"/></mxGeometry></mxCell><mxCell id="F4_FC6QTrkteYdjYBfhk-6" value="" style="endArrow=classic;html=1;rounded=0;entryX=0.75;entryY=1;entryDx=0;entryDy=0;exitX=0;exitY=1;exitDx=0;exitDy=0;" parent="rBR2V6Ndq5vLTO4xanbZ-1" source="WUexHnHFRPfRSXijLUcV-2" target="F4_FC6QTrkteYdjYBfhk-7" edge="1"><mxGeometry width="50" height="50" relative="1" as="geometry"><mxPoint x="-20" y="550" as="sourcePoint"/><mxPoint x="50" y="615.86" as="targetPoint"/></mxGeometry></mxCell><mxCell id="F4_FC6QTrkteYdjYBfhk-7" value="Хранилище групп" style="html=1;dashed=0;whitespace=wrap;shape=partialRectangle;right=0;" parent="rBR2V6Ndq5vLTO4xanbZ-1" vertex="1"><mxGeometry x="-160" y="495" width="100" height="30" as="geometry"/></mxCell><mxCell id="F4_FC6QTrkteYdjYBfhk-8" value="" style="endArrow=classic;html=1;rounded=0;entryX=0;entryY=0;entryDx=0;entryDy=0;exitX=0.75;exitY=0;exitDx=0;exitDy=0;" parent="rBR2V6Ndq5vLTO4xanbZ-1" source="F4_FC6QTrkteYdjYBfhk-7" target="WUexHnHFRPfRSXijLUcV-2" edge="1"><mxGeometry width="50" height="50" relative="1" as="geometry"><mxPoint x="210" y="580" as="sourcePoint"/><mxPoint x="120" y="560" as="targetPoint"/></mxGeometry></mxCell><mxCell id="M1rePh04-0rUDoEQ0xkx-0" value="Map API" style="rounded=1;whiteSpace=wrap;html=1;" parent="rBR2V6Ndq5vLTO4xanbZ-1" vertex="1"><mxGeometry x="385" y="320" width="80" height="80" as="geometry"/></mxCell><mxCell id="M1rePh04-0rUDoEQ0xkx-1" value="Запрос информации&lt;br&gt;по геопозиции" style="endArrow=classic;html=1;rounded=0;entryX=0.25;entryY=1;entryDx=0;entryDy=0;exitX=0;exitY=0;exitDx=0;exitDy=0;" parent="rBR2V6Ndq5vLTO4xanbZ-1" source="WUexHnHFRPfRSXijLUcV-3" target="M1rePh04-0rUDoEQ0xkx-0" edge="1"><mxGeometry x="-0.1287" y="61" width="50" height="50" relative="1" as="geometry"><mxPoint x="360" y="480" as="sourcePoint"/><mxPoint x="425" y="420" as="targetPoint"/><mxPoint as="offset"/></mxGeometry></mxCell><mxCell id="M1rePh04-0rUDoEQ0xkx-2" value="Результат запроса" style="endArrow=classic;html=1;rounded=0;exitX=0.75;exitY=1;exitDx=0;exitDy=0;entryX=1;entryY=0;entryDx=0;entryDy=0;" parent="rBR2V6Ndq5vLTO4xanbZ-1" source="M1rePh04-0rUDoEQ0xkx-0" target="WUexHnHFRPfRSXijLUcV-3" edge="1"><mxGeometry x="0.1287" y="61" width="50" height="50" relative="1" as="geometry"><mxPoint x="555" y="430" as="sourcePoint"/><mxPoint x="520" y="480" as="targetPoint"/><mxPoint as="offset"/></mxGeometry></mxCell><mxCell id="vksZj73iUqHYgJxXmf3C-0" value="" style="endArrow=classic;html=1;rounded=0;exitX=0;exitY=0;exitDx=0;exitDy=0;entryX=0;entryY=1;entryDx=0;entryDy=0;" parent="rBR2V6Ndq5vLTO4xanbZ-1" source="WUexHnHFRPfRSXijLUcV-6" target="WUexHnHFRPfRSXijLUcV-7" edge="1"><mxGeometry width="50" height="50" relative="1" as="geometry"><mxPoint x="890" y="640" as="sourcePoint"/><mxPoint x="940" y="590" as="targetPoint"/></mxGeometry></mxCell><mxCell id="A6WXbaaUIDHOaYxhGtjC-0" value="" style="endArrow=classic;html=1;rounded=0;entryX=0;entryY=0.5;entryDx=0;entryDy=0;exitX=1;exitY=0.5;exitDx=0;exitDy=0;" parent="rBR2V6Ndq5vLTO4xanbZ-1" source="WUexHnHFRPfRSXijLUcV-6" target="WUexHnHFRPfRSXijLUcV-15" edge="1"><mxGeometry width="50" height="50" relative="1" as="geometry"><mxPoint x="800" y="470" as="sourcePoint"/><mxPoint x="850" y="420" as="targetPoint"/></mxGeometry></mxCell><mxCell id="A6WXbaaUIDHOaYxhGtjC-1" value="" style="endArrow=classic;html=1;rounded=0;exitX=1;exitY=0.5;exitDx=0;exitDy=0;entryX=0;entryY=0.5;entryDx=0;entryDy=0;" parent="rBR2V6Ndq5vLTO4xanbZ-1" source="WUexHnHFRPfRSXijLUcV-7" target="F4_FC6QTrkteYdjYBfhk-1" edge="1"><mxGeometry width="50" height="50" relative="1" as="geometry"><mxPoint x="800" y="420" as="sourcePoint"/><mxPoint x="930" y="370" as="targetPoint"/></mxGeometry></mxCell></root></mxGraphModel></diagram></mxfile>